<svg width="840" height="258" viewBox="0 0 840 258" fill="none" xmlns="http://www.w3.org/2000/svg">
<path d="M786.961 226.229C795.606 220.512 803.413 213.983 810.527 206.419C858.43 155.474 846.208 67.4316 786.444 32.24C769.028 21.9884 750.646 15.9098 730.442 16.3691C716.71 16.6818 710.229 24.6954 711.915 38.8464C713.542 52.5379 719.108 64.4998 726.066 76.1C737.898 95.8116 749.233 115.836 760.822 135.714C760.822 135.723 760.831 135.723 760.831 135.733C762.011 137.541 764.769 136.984 764.964 134.824C765.11 133.153 764.788 131.502 764.759 129.957C764.457 108.79 767.712 88.2768 774.983 68.4577C776.864 63.3173 779.807 59.2029 785.762 61.4214C792.165 63.8059 791.454 69.0343 789.583 74.4973C777.098 110.95 778.823 147.46 789.612 183.883C791.162 189.102 792.175 194.106 786.483 196.725C780.987 199.246 777.527 195.708 774.759 190.939C751.904 151.575 728.815 112.337 706.116 72.8848C699.498 61.3823 695.96 48.7559 696.106 35.1229C696.311 16.7404 703.27 7.33908 719.926 1.64158C720.219 1.53408 720.774 1.3484 721.076 1.26044C723.094 0.693627 725.355 0.283172 727.596 -0.0100098H9.58056C4.28835 -0.000237037 0 4.37795 0 9.77249V248.227C0 253.622 4.28835 258 9.58056 258H719.458C679.138 254.824 646.937 234.77 624.559 198.963C591.013 145.301 599.609 78.7484 643.983 34.9666C650.289 28.7414 657.287 23.3957 664.753 18.6559C669.519 15.6264 673.817 14.7761 677.238 20.3661C680.785 26.1614 677.462 29.7089 672.979 32.5918C655.075 44.0943 641.186 59.3691 631.752 78.8266C611.119 121.367 618.789 172.752 650.396 206.449C671.76 229.229 697.432 241.963 728.522 241.963C743.951 241.963 750.237 234.819 748.639 219.016C747.498 207.68 743.152 197.477 737.421 187.763C724.858 166.459 712.539 145.008 700.083 123.625C699.245 122.178 698.601 120.429 695.453 119.53C695.561 135.372 695.356 150.519 692.442 165.491C690.765 174.091 688.066 182.339 685.356 190.588C683.553 196.07 679.723 198.885 674.051 196.598C668.3 194.282 668.963 189.64 670.62 184.704C682.959 148.027 682.052 111.311 670.659 74.6341C669.07 69.5132 668.144 64.4802 673.875 61.7341C679.879 58.8609 683.261 62.8384 686.116 67.7248C708.026 105.369 729.994 142.965 751.904 180.619C757.742 190.656 761.913 201.435 764.028 212.84C764.749 216.749 766.357 220.463 768.862 223.502C772.517 227.949 778.54 231.809 786.961 226.229Z" fill="#D4437B"/>
</svg>
