<svg width="46" height="46" viewBox="0 0 46 46" fill="none" xmlns="http://www.w3.org/2000/svg">
<g filter="url(#filter0_d_2589_5410)">
<rect x="10.0737" y="9.30664" width="25" height="25" rx="12.5" fill="#333333"/>
</g>
<path d="M28.8081 23.6074L26.019 22.4043C25.5269 22.2129 24.9253 22.3496 24.5972 22.7871L23.6675 23.8809C22.2456 23.0879 21.0425 21.8848 20.2495 20.4629L21.3706 19.5605C21.7808 19.2051 21.9175 18.6035 21.6987 18.1113L20.5229 15.3223C20.2769 14.7754 19.6753 14.4746 19.1011 14.6113L16.5308 15.2129C15.9565 15.3223 15.5737 15.8145 15.5737 16.416C15.5737 23.1152 21.0151 28.5566 27.7144 28.5566C28.3159 28.5566 28.8081 28.1738 28.9448 27.5996L29.519 25.0293C29.6558 24.4551 29.355 23.8535 28.8081 23.6074ZM28.0698 27.4082C28.0425 27.5723 27.9058 27.709 27.7144 27.709C21.5073 27.709 16.4487 22.623 16.4487 16.416C16.4487 16.2246 16.5581 16.0879 16.7222 16.0605L19.2925 15.459C19.3198 15.459 19.3472 15.4316 19.3745 15.4316C19.5112 15.4316 19.6479 15.541 19.73 15.6777L20.9058 18.4395C20.9604 18.6035 20.9331 18.7676 20.7964 18.877L19.4292 19.998C19.2651 20.1348 19.2104 20.3535 19.3198 20.5449C20.2222 22.377 21.7534 23.9082 23.6128 24.8105C23.7769 24.9199 23.9956 24.8652 24.1323 24.7012L25.2534 23.334C25.3628 23.1973 25.5269 23.1699 25.6909 23.2246L28.4526 24.4004C28.6167 24.4824 28.7261 24.6465 28.6714 24.8379L28.0698 27.4082Z" fill="white"/>
<defs>
<filter id="filter0_d_2589_5410" x="0.0737305" y="0.306641" width="45" height="45" filterUnits="userSpaceOnUse" color-interpolation-filters="sRGB">
<feFlood flood-opacity="0" result="BackgroundImageFix"/>
<feColorMatrix in="SourceAlpha" type="matrix" values="0 0 0 0 0 0 0 0 0 0 0 0 0 0 0 0 0 0 127 0" result="hardAlpha"/>
<feOffset dy="1"/>
<feGaussianBlur stdDeviation="5"/>
<feComposite in2="hardAlpha" operator="out"/>
<feColorMatrix type="matrix" values="0 0 0 0 0 0 0 0 0 0 0 0 0 0 0 0 0 0 0.15 0"/>
<feBlend mode="normal" in2="BackgroundImageFix" result="effect1_dropShadow_2589_5410"/>
<feBlend mode="normal" in="SourceGraphic" in2="effect1_dropShadow_2589_5410" result="shape"/>
</filter>
</defs>
</svg>
