<svg width="46" height="46" viewBox="0 0 46 46" fill="none" xmlns="http://www.w3.org/2000/svg">
<g filter="url(#filter0_d_2589_5407)">
<rect x="10.0737" y="9.00195" width="25" height="25" rx="12.5" fill="#333333"/>
</g>
<path d="M26.9487 16.2207C26.0464 16.2207 26.0737 17.5332 26.9487 17.5332C27.8237 17.5332 27.7964 16.2207 26.9487 16.2207ZM27.3862 23.877H24.3237C23.5854 23.877 23.0112 23.3027 23.0112 22.5645C23.0112 21.8535 23.5854 21.252 24.3237 21.252H26.9487C26.9487 21.252 29.5737 18.3262 29.5737 16.877C29.5737 15.4277 28.3979 14.252 26.9487 14.252C25.4995 14.252 24.3237 15.4277 24.3237 16.877C24.3237 17.834 25.4175 19.4199 26.2104 20.377H24.3237C23.0933 20.377 22.1362 21.3613 22.1362 22.5645C22.1362 23.7949 23.0933 24.752 24.3237 24.752H27.3862C28.0972 24.752 28.6987 25.3535 28.6987 26.0645C28.6987 26.8027 28.0972 27.377 27.3862 27.377H18.9097C19.7026 26.4199 20.8237 24.834 20.8237 23.877C20.8237 22.4277 19.6479 21.252 18.1987 21.252C16.7495 21.252 15.5737 22.4277 15.5737 23.877C15.5737 25.3262 18.1987 28.252 18.1987 28.252H27.3862C28.5894 28.252 29.5737 27.2949 29.5737 26.0645C29.5737 24.8613 28.5894 23.877 27.3862 23.877ZM25.1987 16.877C25.1987 15.9199 25.9644 15.127 26.9487 15.127C27.9058 15.127 28.6987 15.9199 28.6987 16.877C28.6987 17.4512 27.8511 18.7363 26.9487 19.9121C25.9917 18.7363 25.1987 17.4238 25.1987 16.877ZM16.4487 23.877C16.4487 22.9199 17.2144 22.127 18.1987 22.127C19.1558 22.127 19.9487 22.9199 19.9487 23.877C19.9487 24.4512 19.1011 25.7363 18.1987 26.9121C17.2417 25.7363 16.4487 24.4238 16.4487 23.877ZM18.1987 23.2207C17.2964 23.2207 17.3237 24.5332 18.1987 24.5332C19.0737 24.5332 19.0464 23.2207 18.1987 23.2207Z" fill="white"/>
<defs>
<filter id="filter0_d_2589_5407" x="0.0737305" y="0.00195312" width="45" height="45" filterUnits="userSpaceOnUse" color-interpolation-filters="sRGB">
<feFlood flood-opacity="0" result="BackgroundImageFix"/>
<feColorMatrix in="SourceAlpha" type="matrix" values="0 0 0 0 0 0 0 0 0 0 0 0 0 0 0 0 0 0 127 0" result="hardAlpha"/>
<feOffset dy="1"/>
<feGaussianBlur stdDeviation="5"/>
<feComposite in2="hardAlpha" operator="out"/>
<feColorMatrix type="matrix" values="0 0 0 0 0 0 0 0 0 0 0 0 0 0 0 0 0 0 0.15 0"/>
<feBlend mode="normal" in2="BackgroundImageFix" result="effect1_dropShadow_2589_5407"/>
<feBlend mode="normal" in="SourceGraphic" in2="effect1_dropShadow_2589_5407" result="shape"/>
</filter>
</defs>
</svg>
