<svg width="31" height="30" viewBox="0 0 31 30" fill="none" xmlns="http://www.w3.org/2000/svg">
<path d="M15.5399 29.24C23.6143 29.24 30.1599 22.6944 30.1599 14.62C30.1599 6.5456 23.6143 0 15.5399 0C7.46552 0 0.919922 6.5456 0.919922 14.62C0.919922 22.6944 7.46552 29.24 15.5399 29.24Z" fill="url(#paint0_linear_2589_5435)"/>
<path d="M20.08 9.10986C19.53 9.10986 19.08 9.55986 19.08 10.1099C19.08 10.6699 19.53 11.1199 20.08 11.1199C20.64 11.1199 21.09 10.6699 21.09 10.1099C21.08 9.55986 20.63 9.10986 20.08 9.10986Z" fill="white"/>
<path d="M15.61 10.3999C13.28 10.3999 11.39 12.2899 11.39 14.6199C11.39 16.9499 13.28 18.8399 15.61 18.8399C17.94 18.8399 19.83 16.9499 19.83 14.6199C19.83 12.2899 17.94 10.3999 15.61 10.3999ZM15.61 17.3299C14.12 17.3299 12.91 16.1199 12.91 14.6299C12.91 13.1399 14.12 11.9299 15.61 11.9299C17.1 11.9299 18.31 13.1399 18.31 14.6299C18.31 16.1199 17.1 17.3299 15.61 17.3299Z" fill="white"/>
<path d="M18.96 23.1898H12.12C9.27997 23.1898 6.96997 20.8798 6.96997 18.0398V11.1998C6.96997 8.3598 9.27997 6.0498 12.12 6.0498H18.96C21.8 6.0498 24.11 8.3598 24.11 11.1998V18.0398C24.11 20.8798 21.8 23.1898 18.96 23.1898ZM12.12 7.6598C10.17 7.6598 8.57997 9.2498 8.57997 11.1998V18.0398C8.57997 19.9898 10.17 21.5798 12.12 21.5798H18.96C20.91 21.5798 22.5 19.9898 22.5 18.0398V11.1998C22.5 9.2498 20.91 7.6598 18.96 7.6598H12.12Z" fill="white"/>
<defs>
<linearGradient id="paint0_linear_2589_5435" x1="25.8767" y1="4.2825" x2="5.19893" y2="24.9603" gradientUnits="userSpaceOnUse">
<stop offset="0.0011048" stop-color="#FBE18A"/>
<stop offset="0.2094" stop-color="#FCBB45"/>
<stop offset="0.3765" stop-color="#F75274"/>
<stop offset="0.5238" stop-color="#D53692"/>
<stop offset="0.7394" stop-color="#8F39CE"/>
<stop offset="1" stop-color="#5B4FE9"/>
</linearGradient>
</defs>
</svg>
