<svg width="31" height="30" viewBox="0 0 31 30" fill="none" xmlns="http://www.w3.org/2000/svg">
<path d="M15.4501 29.24C23.5245 29.24 30.0701 22.6944 30.0701 14.62C30.0701 6.5456 23.5245 0 15.4501 0C7.37567 0 0.830078 6.5456 0.830078 14.62C0.830078 22.6944 7.37567 29.24 15.4501 29.24Z" fill="url(#paint0_linear_2589_5432)"/>
<path d="M23.53 9.61011C23.02 9.84011 22.46 9.98011 21.92 10.0701C22.18 10.0301 22.56 9.56011 22.71 9.37011C22.94 9.08011 23.14 8.75011 23.25 8.39011C23.26 8.36011 23.27 8.33011 23.25 8.31011C23.22 8.30011 23.19 8.30011 23.16 8.32011C22.55 8.65011 21.92 8.88011 21.25 9.05011C21.19 9.06011 21.15 9.05011 21.12 9.02011C21.06 8.96011 21.01 8.90011 20.95 8.85011C20.67 8.61011 20.37 8.42011 20.02 8.28011C19.57 8.10011 19.08 8.02011 18.6 8.05011C18.13 8.08011 17.67 8.21011 17.25 8.43011C16.83 8.65011 16.46 8.95011 16.16 9.32011C15.85 9.70011 15.63 10.1501 15.51 10.6201C15.4 11.0801 15.41 11.5301 15.48 11.9901C15.49 12.0701 15.48 12.0801 15.41 12.0701C12.78 11.6801 10.61 10.7401 8.84002 8.73011C8.76002 8.64011 8.72003 8.64011 8.66003 8.74011C7.89003 9.90011 8.26003 11.7601 9.23003 12.6801C9.36003 12.8001 9.49002 12.9201 9.63002 13.0401C9.58002 13.0501 8.94003 12.9801 8.36003 12.6801C8.28003 12.6301 8.24002 12.6601 8.24002 12.7501C8.23002 12.8801 8.24003 12.9901 8.26003 13.1301C8.41003 14.3001 9.22002 15.3901 10.34 15.8201C10.47 15.8801 10.62 15.9201 10.76 15.9501C10.51 16.0101 10.24 16.0501 9.52002 15.9901C9.43002 15.9701 9.39003 16.0201 9.43003 16.1001C9.98003 17.5901 11.16 18.0301 12.04 18.2901C12.16 18.3101 12.28 18.3101 12.4 18.3401C12.39 18.3501 12.39 18.3501 12.38 18.3601C12.09 18.8101 11.07 19.1401 10.6 19.3101C9.74003 19.6101 8.80003 19.7501 7.89003 19.6601C7.74003 19.6401 7.71002 19.6401 7.67002 19.6601C7.63002 19.6801 7.66003 19.7201 7.71003 19.7601C7.89003 19.8801 8.08002 19.9901 8.27002 20.0901C8.85002 20.4001 9.45003 20.6401 10.08 20.8101C13.34 21.7101 17 21.0501 19.45 18.6201C21.37 16.7101 22.04 14.0801 22.04 11.4501C22.04 11.3501 22.16 11.2901 22.23 11.2401C22.73 10.8601 23.13 10.4201 23.5 9.91011C23.58 9.80011 23.58 9.70011 23.58 9.66011C23.58 9.65011 23.58 9.65011 23.58 9.65011C23.6 9.57011 23.6 9.58011 23.53 9.61011Z" fill="white"/>
<defs>
<linearGradient id="paint0_linear_2589_5432" x1="25.7933" y1="4.2825" x2="5.11558" y2="24.9603" gradientUnits="userSpaceOnUse">
<stop stop-color="#33CCFF"/>
<stop offset="1" stop-color="#337FFF"/>
</linearGradient>
</defs>
</svg>
