<svg width="254" height="30" viewBox="0 0 254 30" fill="none" xmlns="http://www.w3.org/2000/svg">
<g clip-path="url(#clip0_35_749)">
<path d="M194.46 29.7849C202.534 29.7849 209.08 23.2393 209.08 15.1649C209.08 7.09052 202.534 0.544922 194.46 0.544922C186.385 0.544922 179.84 7.09052 179.84 15.1649C179.84 23.2393 186.385 29.7849 194.46 29.7849Z" fill="url(#paint0_linear_35_749)"/>
<path d="M185.51 19.895C185.51 19.805 185.51 19.705 185.51 19.615C185.62 19.485 185.75 19.365 185.93 19.335C187.4 19.045 188.39 18.105 189.13 16.875C189.75 15.835 189.65 15.605 188.5 15.195C188.43 15.175 188.37 15.155 188.3 15.125C188.05 15.025 187.81 14.915 187.6 14.735C187.08 14.285 187.39 13.645 188 13.495C188.44 13.385 188.83 13.675 189.26 13.725C189.55 13.765 189.66 13.665 189.63 13.355C189.54 12.565 189.54 11.775 189.58 10.975C189.65 9.465 190.39 8.305 191.66 7.565C193.5 6.475 195.42 6.465 197.28 7.545C198.44 8.225 199.18 9.255 199.35 10.625C199.46 11.525 199.41 12.415 199.34 13.315C199.31 13.705 199.39 13.775 199.77 13.685C200.25 13.575 200.65 13.325 201.15 13.545C201.42 13.665 201.65 13.915 201.64 14.205C201.64 14.405 201.52 14.585 201.37 14.715C201.14 14.915 200.84 15.025 200.56 15.135C200.34 15.225 200.12 15.295 199.91 15.385C199.48 15.585 199.35 15.855 199.55 16.285C200.25 17.775 201.29 18.905 202.96 19.295C203.16 19.345 203.33 19.425 203.45 19.595C203.45 19.685 203.45 19.785 203.45 19.875C203.29 20.205 203.01 20.385 202.69 20.505C202.36 20.625 202.03 20.765 201.68 20.795C201.19 20.825 200.94 21.035 200.87 21.545C200.8 22.025 200.65 22.095 200.16 22.055C200.04 22.045 199.93 22.025 199.81 22.005C198.85 21.835 197.95 21.935 197.16 22.565C197.01 22.685 196.84 22.795 196.67 22.905C195.33 23.775 193.95 23.875 192.55 23.055C192.17 22.835 191.8 22.575 191.43 22.335C191.12 22.135 190.79 22.025 190.42 21.965C189.84 21.875 189.28 22.005 188.71 22.065C188.42 22.095 188.14 22.015 188.12 21.715C188.08 20.985 187.64 20.815 187.03 20.745C186.75 20.715 186.46 20.595 186.2 20.485C185.92 20.375 185.65 20.195 185.51 19.895Z" fill="white"/>
<path d="M104.62 29.7849C112.694 29.7849 119.24 23.2393 119.24 15.1649C119.24 7.09052 112.694 0.544922 104.62 0.544922C96.5456 0.544922 90 7.09052 90 15.1649C90 23.2393 96.5456 29.7849 104.62 29.7849Z" fill="url(#paint1_linear_35_749)"/>
<path d="M112.7 10.155C112.19 10.385 111.63 10.525 111.09 10.615C111.35 10.575 111.73 10.105 111.88 9.91503C112.11 9.62503 112.31 9.29503 112.42 8.93503C112.43 8.90503 112.44 8.87503 112.42 8.85503C112.39 8.84503 112.36 8.84503 112.33 8.86503C111.72 9.19503 111.09 9.42503 110.42 9.59503C110.36 9.60503 110.32 9.59503 110.29 9.56503C110.23 9.50503 110.18 9.44503 110.12 9.39503C109.84 9.15503 109.54 8.96503 109.19 8.82503C108.74 8.64503 108.25 8.56503 107.77 8.59503C107.3 8.62503 106.84 8.75503 106.42 8.97503C106 9.19503 105.63 9.49503 105.33 9.86503C105.02 10.245 104.8 10.695 104.68 11.165C104.57 11.625 104.58 12.075 104.65 12.535C104.66 12.615 104.65 12.625 104.58 12.615C101.95 12.225 99.7798 11.285 98.0098 9.27503C97.9298 9.18503 97.8898 9.18503 97.8298 9.28503C97.0598 10.445 97.4298 12.305 98.3998 13.225C98.5298 13.345 98.6598 13.465 98.7998 13.585C98.7498 13.595 98.1098 13.525 97.5298 13.225C97.4498 13.175 97.4098 13.205 97.4098 13.295C97.3998 13.425 97.4098 13.535 97.4298 13.675C97.5798 14.845 98.3898 15.935 99.5098 16.365C99.6398 16.425 99.7898 16.465 99.9298 16.495C99.6798 16.555 99.4098 16.595 98.6898 16.535C98.5998 16.515 98.5598 16.565 98.5998 16.645C99.1498 18.135 100.33 18.575 101.21 18.835C101.33 18.855 101.45 18.855 101.57 18.885C101.56 18.895 101.56 18.895 101.55 18.905C101.26 19.355 100.24 19.685 99.7698 19.855C98.9098 20.155 97.9698 20.295 97.0598 20.205C96.9098 20.185 96.8798 20.185 96.8398 20.205C96.7998 20.225 96.8298 20.265 96.8798 20.305C97.0598 20.425 97.2498 20.535 97.4398 20.635C98.0198 20.945 98.6198 21.185 99.2498 21.355C102.51 22.255 106.17 21.595 108.62 19.165C110.54 17.255 111.21 14.625 111.21 11.995C111.21 11.895 111.33 11.835 111.4 11.785C111.9 11.405 112.3 10.965 112.67 10.455C112.75 10.345 112.75 10.245 112.75 10.205C112.75 10.195 112.75 10.195 112.75 10.195C112.77 10.115 112.77 10.125 112.7 10.155Z" fill="white"/>
<path d="M239.37 29.7849C247.444 29.7849 253.99 23.2393 253.99 15.1649C253.99 7.09052 247.444 0.544922 239.37 0.544922C231.296 0.544922 224.75 7.09052 224.75 15.1649C224.75 23.2393 231.296 29.7849 239.37 29.7849Z" fill="url(#paint2_linear_35_749)"/>
<path d="M247.2 13.0449C247.2 11.1049 245.63 9.53491 243.69 9.53491H234.71C232.77 9.53491 231.2 11.1049 231.2 13.0449V17.2249C231.2 19.1649 232.77 20.7349 234.71 20.7349H243.69C245.63 20.7349 247.2 19.1649 247.2 17.2249V13.0449ZM241.92 15.4449L237.89 17.4349C237.73 17.5249 237.2 17.4049 237.2 17.2249V13.1349C237.2 12.9549 237.74 12.8349 237.9 12.9249L241.75 15.0249C241.92 15.1249 242.09 15.3549 241.92 15.4449Z" fill="white"/>
<path d="M59.7098 29.7849C67.7842 29.7849 74.3298 23.2393 74.3298 15.1649C74.3298 7.09052 67.7842 0.544922 59.7098 0.544922C51.6354 0.544922 45.0898 7.09052 45.0898 15.1649C45.0898 23.2393 51.6354 29.7849 59.7098 29.7849Z" fill="url(#paint3_linear_35_749)"/>
<path d="M64.25 9.65503C63.7 9.65503 63.25 10.105 63.25 10.655C63.25 11.215 63.7 11.665 64.25 11.665C64.81 11.665 65.26 11.215 65.26 10.655C65.25 10.105 64.8 9.65503 64.25 9.65503Z" fill="white"/>
<path d="M59.7796 10.9451C57.4496 10.9451 55.5596 12.8351 55.5596 15.1651C55.5596 17.4951 57.4496 19.3851 59.7796 19.3851C62.1096 19.3851 63.9996 17.4951 63.9996 15.1651C63.9996 12.8351 62.1096 10.9451 59.7796 10.9451ZM59.7796 17.8751C58.2896 17.8751 57.0796 16.6651 57.0796 15.1751C57.0796 13.6851 58.2896 12.4751 59.7796 12.4751C61.2696 12.4751 62.4796 13.6851 62.4796 15.1751C62.4796 16.6651 61.2696 17.8751 59.7796 17.8751Z" fill="white"/>
<path d="M63.1296 23.735H56.2896C53.4496 23.735 51.1396 21.425 51.1396 18.585V11.745C51.1396 8.90497 53.4496 6.59497 56.2896 6.59497H63.1296C65.9696 6.59497 68.2796 8.90497 68.2796 11.745V18.585C68.2796 21.425 65.9696 23.735 63.1296 23.735ZM56.2896 8.20497C54.3396 8.20497 52.7496 9.79497 52.7496 11.745V18.585C52.7496 20.535 54.3396 22.125 56.2896 22.125H63.1296C65.0796 22.125 66.6696 20.535 66.6696 18.585V11.745C66.6696 9.79497 65.0796 8.20497 63.1296 8.20497H56.2896Z" fill="white"/>
<path d="M29.4099 15.1649C29.4099 7.09492 22.8699 0.544922 14.7899 0.544922C6.70992 0.544922 0.169922 7.09492 0.169922 15.1649C0.169922 22.4649 5.51992 28.5149 12.5099 29.6049V19.3949H8.78992V15.1649H12.4999V11.9449C12.4999 8.28492 14.6799 6.25492 18.0199 6.25492C19.6199 6.25492 21.2899 6.54492 21.2899 6.54492V10.1449H19.4499C17.6299 10.1449 17.0699 11.2749 17.0699 12.4249V15.1649H21.1299L20.4799 19.3949H17.0699V29.6149C24.0699 28.5149 29.4099 22.4649 29.4099 15.1649Z" fill="url(#paint4_linear_35_749)"/>
<path d="M20.48 19.3949L21.13 15.1649H17.07V12.4249C17.07 11.2649 17.64 10.1449 19.45 10.1449H21.29V6.54488C21.29 6.54488 19.62 6.25488 18.02 6.25488C14.68 6.25488 12.5 8.27488 12.5 11.9449V15.1649H8.79004V19.3949H12.5V29.6149C13.24 29.7349 14.01 29.7949 14.78 29.7949C15.55 29.7949 16.32 29.7349 17.06 29.6149V19.3949H20.48Z" fill="white"/>
<path d="M149.54 29.7849C157.614 29.7849 164.16 23.2393 164.16 15.1649C164.16 7.09052 157.614 0.544922 149.54 0.544922C141.466 0.544922 134.92 7.09052 134.92 15.1649C134.92 23.2393 141.466 29.7849 149.54 29.7849Z" fill="url(#paint5_linear_35_749)"/>
<path d="M143.41 12.4448H146.24V21.5448H143.41V12.4448ZM144.83 7.9248C145.74 7.9248 146.47 8.65481 146.47 9.56481C146.47 10.4648 145.74 11.2048 144.83 11.2048C143.92 11.2048 143.19 10.4648 143.19 9.56481C143.18 8.65481 143.92 7.9248 144.83 7.9248Z" fill="white"/>
<path d="M148.02 12.4448H150.73V13.6848H150.77C151.15 12.9648 152.07 12.2148 153.45 12.2148C156.31 12.2148 156.84 14.0948 156.84 16.5448V21.5448H154.01V17.1248C154.01 16.0648 153.99 14.7148 152.54 14.7148C151.07 14.7148 150.84 15.8648 150.84 17.0548V21.5448H148.01V12.4448H148.02Z" fill="white"/>
</g>
<defs>
<linearGradient id="paint0_linear_35_749" x1="204.796" y1="4.82742" x2="184.118" y2="25.5052" gradientUnits="userSpaceOnUse">
<stop stop-color="#FEFB01"/>
<stop offset="1" stop-color="#FCBB45"/>
</linearGradient>
<linearGradient id="paint1_linear_35_749" x1="114.963" y1="4.82742" x2="94.2855" y2="25.5052" gradientUnits="userSpaceOnUse">
<stop stop-color="#33CCFF"/>
<stop offset="1" stop-color="#337FFF"/>
</linearGradient>
<linearGradient id="paint2_linear_35_749" x1="249.713" y1="4.82742" x2="229.035" y2="25.5052" gradientUnits="userSpaceOnUse">
<stop stop-color="#FF0000"/>
<stop offset="1" stop-color="#850000"/>
</linearGradient>
<linearGradient id="paint3_linear_35_749" x1="70.0466" y1="4.82742" x2="49.3688" y2="25.5052" gradientUnits="userSpaceOnUse">
<stop offset="0.0011048" stop-color="#FBE18A"/>
<stop offset="0.2094" stop-color="#FCBB45"/>
<stop offset="0.3765" stop-color="#F75274"/>
<stop offset="0.5238" stop-color="#D53692"/>
<stop offset="0.7394" stop-color="#8F39CE"/>
<stop offset="1" stop-color="#5B4FE9"/>
</linearGradient>
<linearGradient id="paint4_linear_35_749" x1="4.45252" y1="4.82742" x2="25.1301" y2="25.5051" gradientUnits="userSpaceOnUse">
<stop stop-color="#4676ED"/>
<stop offset="0.1854" stop-color="#436DE4"/>
<stop offset="0.487" stop-color="#3C55CD"/>
<stop offset="0.8651" stop-color="#302EA8"/>
<stop offset="1" stop-color="#2B1E99"/>
</linearGradient>
<linearGradient id="paint5_linear_35_749" x1="159.88" y1="4.82742" x2="139.202" y2="25.5052" gradientUnits="userSpaceOnUse">
<stop stop-color="#007AB5"/>
<stop offset="1" stop-color="#0046E5"/>
</linearGradient>
<clipPath id="clip0_35_749">
<rect width="253.83" height="29.24" fill="white" transform="translate(0.169922 0.544922)"/>
</clipPath>
</defs>
</svg>
