<svg width="42" height="18" viewBox="0 0 42 18" fill="none" xmlns="http://www.w3.org/2000/svg">
<path d="M14 2.625H4.375C3.39062 2.625 2.625 3.41797 2.625 4.375V10.5C2.625 11.4844 3.39062 12.25 4.375 12.25H14C14.957 12.25 15.75 11.4844 15.75 10.5V4.375C15.75 3.41797 14.957 2.625 14 2.625ZM14.4375 10.5C14.4375 10.7461 14.2188 10.9375 14 10.9375H13.5625L10.5547 6.5625C10.4727 6.42578 10.3359 6.34375 10.1992 6.34375C10.0352 6.34375 9.89844 6.42578 9.81641 6.5625L8.12109 9.13281L7.49219 8.28516C7.41016 8.17578 7.30078 8.09375 7.16406 8.09375C7 8.09375 6.89062 8.17578 6.80859 8.28516L4.8125 10.9375H4.375C4.12891 10.9375 3.9375 10.7461 3.9375 10.5V4.375C3.9375 4.15625 4.12891 3.9375 4.375 3.9375H14C14.2188 3.9375 14.4375 4.15625 14.4375 4.375V10.5ZM6.125 4.8125C5.63281 4.8125 5.25 5.22266 5.25 5.6875C5.25 6.17969 5.63281 6.5625 6.125 6.5625C6.58984 6.5625 7 6.17969 7 5.6875C7 5.22266 6.58984 4.8125 6.125 4.8125ZM12.4688 14.875H3.28125C1.44922 14.875 0 13.4258 0 11.5938V5.03125C0 4.67578 0.273438 4.375 0.65625 4.375C1.01172 4.375 1.3125 4.67578 1.3125 5.03125V11.5938C1.3125 12.6875 2.1875 13.5625 3.28125 13.5625H12.4688C12.8242 13.5625 13.125 13.8633 13.125 14.2188C13.125 14.6016 12.8242 14.875 12.4688 14.875Z" fill="#777777"/>
<path d="M21.6523 14V13.1211H23.2988V6.67578C22.9082 6.89062 22.3281 7.14062 21.5586 7.42578V6.41211C21.8477 6.31055 22.1816 6.16992 22.5605 5.99023C22.9434 5.80664 23.2715 5.63281 23.5449 5.46875H24.4238V13.1211H25.9707V14H21.6523ZM30.7285 5.31641C31.0449 5.31641 31.3418 5.35742 31.6191 5.43945C31.8965 5.51758 32.1406 5.63281 32.3516 5.78516C32.5664 5.9375 32.75 6.11914 32.9023 6.33008C33.0547 6.53711 33.1699 6.77148 33.248 7.0332C33.3262 7.29492 33.3652 7.57422 33.3652 7.87109C33.3652 8.16016 33.3281 8.43945 33.2539 8.70898C33.1797 8.97461 33.0645 9.24023 32.9082 9.50586C32.7559 9.76758 32.584 10.0195 32.3926 10.2617C32.2012 10.5 31.9648 10.7676 31.6836 11.0645L29.7852 13.0742H33.3301V14H28.4434V13.1211L31.0391 10.3672C31.4844 9.89453 31.8008 9.47266 31.9883 9.10156C32.1797 8.73047 32.2754 8.34961 32.2754 7.95898C32.2754 7.43945 32.1348 7.02734 31.8535 6.72266C31.5762 6.41797 31.1797 6.26562 30.6641 6.26562C30.4961 6.26562 30.3223 6.2832 30.1426 6.31836C29.9668 6.34961 29.8105 6.38867 29.6738 6.43555C29.5371 6.47852 29.3965 6.5332 29.252 6.59961C29.1074 6.66211 28.9941 6.7168 28.9121 6.76367C28.834 6.80664 28.752 6.85352 28.666 6.9043C28.584 6.95508 28.541 6.98047 28.5371 6.98047L28.1738 6.10742C28.1777 6.10742 28.2148 6.08594 28.2852 6.04297C28.3555 5.99609 28.4258 5.95312 28.4961 5.91406C28.5703 5.875 28.668 5.82617 28.7891 5.76758C28.9102 5.70508 29.0391 5.65039 29.1758 5.60352C29.3125 5.55273 29.4609 5.50586 29.6211 5.46289C29.7852 5.41602 29.9609 5.38086 30.1484 5.35742C30.3398 5.33008 30.5332 5.31641 30.7285 5.31641ZM37.8828 14.1289C37.5781 14.1289 37.2812 14.1016 36.9922 14.0469C36.7031 13.9961 36.4531 13.9316 36.2422 13.8535C36.0352 13.7715 35.8789 13.707 35.7734 13.6602C35.6719 13.6094 35.5879 13.5645 35.5215 13.5254L35.832 12.6699C36.5352 13.0137 37.1855 13.1855 37.7832 13.1855C38.3574 13.1855 38.8125 13.043 39.1484 12.7578C39.4883 12.4727 39.6582 12.0859 39.6582 11.5977C39.6582 11.332 39.6074 11.0977 39.5059 10.8945C39.4043 10.6875 39.2559 10.5195 39.0605 10.3906C38.8652 10.2617 38.6309 10.1641 38.3574 10.0977C38.084 10.0312 37.7734 9.99805 37.4258 9.99805C37.4102 9.99805 37.3945 9.99805 37.3789 9.99805L36.9277 10.0039L36.916 9.04883H37.3555C38.0703 9.04883 38.5977 8.93164 38.9375 8.69727C39.2812 8.45898 39.4531 8.06445 39.4531 7.51367C39.4531 7.11914 39.2891 6.8125 38.9609 6.59375C38.6367 6.37109 38.2363 6.25977 37.7598 6.25977C36.9746 6.25977 36.3125 6.51758 35.7734 7.0332L35.2578 6.2832C35.5859 5.95508 35.9609 5.71289 36.3828 5.55664C36.8047 5.39648 37.3066 5.31641 37.8887 5.31641C38.3652 5.31641 38.8027 5.39844 39.2012 5.5625C39.5996 5.72266 39.9238 5.97266 40.1738 6.3125C40.4277 6.64844 40.5547 7.04492 40.5547 7.50195C40.5547 7.99023 40.418 8.41992 40.1445 8.79102C39.8711 9.1582 39.4805 9.39648 38.9727 9.50586C39.5312 9.61133 39.9688 9.85742 40.2852 10.2441C40.6055 10.627 40.7656 11.0918 40.7656 11.6387C40.7656 12.1426 40.6367 12.5859 40.3789 12.9688C40.125 13.3516 39.7812 13.6406 39.3477 13.8359C38.9141 14.0312 38.4258 14.1289 37.8828 14.1289Z" fill="#777777"/>
</svg>
