<svg width="60" height="60" viewBox="0 0 60 60" fill="none" xmlns="http://www.w3.org/2000/svg">
<path d="M31.7973 0.422363C31.8082 0.422363 31.8175 0.422363 31.8284 0.423929C32.619 0.466206 33.3119 0.547629 34.0979 0.718304C36.2664 1.18805 38.4397 1.63588 40.5539 2.42662C51.3345 6.45548 59.0767 17.5885 59.2212 29.1975C59.3579 40.1661 54.7505 48.5198 45.9504 54.711C45.7189 54.8739 45.4813 55.0242 45.2405 55.1714C44.2059 55.804 43.1372 55.9668 42.435 54.805C41.7702 53.7026 42.2176 52.6629 43.2568 52.0319C45.3026 50.7902 47.0782 49.2432 48.731 47.5223C59.8596 35.9227 57.02 15.8786 43.1356 7.86785C39.0905 5.53478 34.8187 4.14902 30.1258 4.25393C26.9367 4.32596 25.4299 6.15015 25.8213 9.37105C26.2004 12.4886 27.4928 15.2116 29.1099 17.8531C31.8594 22.3408 34.4924 26.9004 37.183 31.4257C37.1845 31.4288 37.1861 31.4304 37.1876 31.4335C37.4439 31.8563 38.1057 31.6966 38.1461 31.2018C38.1756 30.8275 38.1026 30.4596 38.0964 30.1135C38.0265 25.2955 38.783 20.6246 40.4715 16.1119C40.9096 14.9422 41.5915 14.0043 42.9756 14.5101C44.4638 15.0534 44.2976 16.2434 43.8626 17.4867C40.9624 25.7856 41.3632 34.097 43.8704 42.3911C44.2292 43.5796 44.4669 44.7179 43.1434 45.3145C41.8665 45.8892 41.0634 45.0828 40.4203 43.9977C35.1107 35.0349 29.7483 26.1034 24.473 17.1203C22.9351 14.5007 22.1133 11.6274 22.1475 8.52393C22.1941 4.33849 23.8112 2.19957 27.6808 0.901505C27.7491 0.878018 27.878 0.834175 27.9479 0.815385C28.7448 0.594604 29.7079 0.477167 30.5344 0.428627C30.5483 0.422363 30.5592 0.422363 30.5716 0.422363H31.7973Z" fill="#D3427A"/>
<path d="M21.9969 27.7396C22.0218 31.3473 21.9736 34.7952 21.2963 38.2025C20.9064 40.1597 20.2788 42.0372 19.6513 43.9162C19.2334 45.1641 18.3433 45.8061 17.0244 45.2847C15.6885 44.757 15.8423 43.7016 16.2275 42.5774C19.0936 34.2268 18.8839 25.8685 16.2369 17.5179C15.8672 16.353 15.6528 15.2068 16.9841 14.582C18.379 13.9275 19.165 14.8326 19.8268 15.9459C24.9158 24.5156 30.0203 33.076 35.1092 41.6473C36.6005 44.1589 37.6211 46.8724 38.0576 49.7567C38.8887 55.2433 35.5597 59.399 30.056 59.3693C19.5208 59.3113 11.179 54.6843 5.52767 45.8233C-2.26579 33.6068 -0.268103 18.4559 10.0403 8.48627C11.5052 7.0692 13.1316 5.85099 14.8652 4.77213C15.9728 4.08317 16.9716 3.88901 17.7654 5.16202C18.5887 6.48201 17.8167 7.28998 16.7759 7.94449C12.6174 10.5626 9.39099 14.0418 7.19913 18.4715C2.40687 28.1561 4.18863 39.856 11.53 47.527C16.4932 52.713 22.4567 55.6113 29.6785 55.6113C33.2622 55.6113 34.7224 53.9844 34.3527 50.3877C34.0886 47.8072 33.0774 45.4851 31.7461 43.2726C28.8272 38.4217 25.9659 33.5379 23.0734 28.6713C22.8777 28.3425 22.7286 27.9432 21.9969 27.7396Z" fill="#D3427A"/>
</svg>
