<svg width="25" height="41" viewBox="0 0 25 41" fill="none" xmlns="http://www.w3.org/2000/svg">
<path d="M11.3567 0.392071C12.2486 0.295979 13.0876 0.31559 13.9574 0.392071C14.988 0.556801 16.0052 0.765655 16.9954 1.11767C22.3769 3.02775 25.6874 8.78741 24.6944 14.4931C24.3332 16.567 23.3333 18.3594 22.3422 20.1469C20.8434 22.8483 19.022 25.3486 17.5068 28.0441C15.5476 31.528 14.0469 35.1844 13.2783 39.1252C13.208 39.486 13.1126 39.841 12.999 40.19L12.8169 40.747L12.5154 39.8939C12.4499 39.7076 12.3931 39.5174 12.3459 39.3252C12.2062 38.7575 12.0666 38.1888 11.9259 37.621C10.9078 33.5077 9.12971 29.7385 6.92779 26.1596C5.37797 23.6406 3.70968 21.198 2.31398 18.581C1.43745 16.9386 0.779569 15.2354 0.644718 13.3587C0.254614 7.952 3.52956 2.87773 8.55371 1.06962C9.46588 0.742122 10.4079 0.555821 11.3567 0.392071Z" fill="#D3427A"/>
<ellipse cx="12.7415" cy="12.9745" rx="9.64581" ry="9.94031" fill="white"/>
<path d="M13.1678 6.03418C13.1703 6.03418 13.1726 6.03418 13.1751 6.03456C13.3627 6.0449 13.5271 6.06481 13.7136 6.10653C14.228 6.22138 14.7436 6.33087 15.2452 6.52419C17.8028 7.5092 19.6396 10.2311 19.6739 13.0693C19.7063 15.751 18.6132 17.7933 16.5255 19.307C16.4706 19.3468 16.4142 19.3836 16.3571 19.4196C16.1116 19.5742 15.8581 19.6141 15.6915 19.33C15.5338 19.0605 15.6399 18.8063 15.8864 18.652C16.3718 18.3484 16.793 17.9702 17.1852 17.5495C19.8254 14.7135 19.1517 9.81302 15.8577 7.8545C14.898 7.2841 13.8846 6.9453 12.7712 6.97095C12.0146 6.98856 11.6571 7.43455 11.75 8.22201C11.8399 8.98421 12.1465 9.64994 12.5302 10.2958C13.1825 11.3929 13.8072 12.5077 14.4455 13.6141C14.4458 13.6148 14.4462 13.6152 14.4466 13.616C14.5074 13.7193 14.6644 13.6803 14.674 13.5593C14.681 13.4678 14.6636 13.3779 14.6622 13.2933C14.6456 12.1153 14.8251 10.9734 15.2257 9.87006C15.3296 9.5841 15.4914 9.35478 15.8197 9.47844C16.1728 9.61128 16.1334 9.90222 16.0302 10.2062C15.3421 12.2351 15.4372 14.2672 16.032 16.295C16.1172 16.5855 16.1735 16.8639 15.8595 17.0097C15.5566 17.1502 15.3661 16.9531 15.2135 16.6878C13.9538 14.4965 12.6817 12.3129 11.4301 10.1166C11.0653 9.47614 10.8703 8.77366 10.8784 8.0149C10.8895 6.99162 11.2731 6.46868 12.1911 6.15132C12.2074 6.14558 12.2379 6.13486 12.2545 6.13027C12.4436 6.07629 12.6721 6.04758 12.8681 6.03571C12.8715 6.03418 12.874 6.03418 12.877 6.03418H13.1678Z" fill="#D3427A"/>
<path d="M10.8425 12.7128C10.8484 13.5948 10.837 14.4378 10.6763 15.2708C10.5838 15.7493 10.4349 16.2083 10.2861 16.6677C10.1869 16.9728 9.97575 17.1298 9.66286 17.0023C9.34592 16.8733 9.38241 16.6153 9.4738 16.3404C10.1538 14.2988 10.104 12.2553 9.47602 10.2137C9.3883 9.92887 9.33745 9.64864 9.65328 9.4959C9.98423 9.33588 10.1707 9.55715 10.3277 9.82934C11.535 11.9245 12.746 14.0174 13.9534 16.113C14.3071 16.727 14.5493 17.3905 14.6528 18.0956C14.85 19.437 14.0602 20.4531 12.7545 20.4458C10.2551 20.4316 8.27606 19.3004 6.93533 17.134C5.08639 14.1472 5.56032 10.443 8.00593 8.00557C8.35346 7.65911 8.73931 7.36128 9.1506 7.09751C9.41337 6.92907 9.65033 6.8816 9.83865 7.19284C10.034 7.51556 9.85082 7.71309 9.6039 7.87311C8.61733 8.51319 7.85188 9.36382 7.33188 10.4468C6.19494 12.8146 6.61765 15.675 8.35935 17.5505C9.53682 18.8184 10.9516 19.527 12.665 19.527C13.5152 19.527 13.8616 19.1293 13.7739 18.2499C13.7112 17.619 13.4713 17.0513 13.1555 16.5104C12.463 15.3244 11.7842 14.1304 11.0979 12.9405C11.0515 12.8601 11.0161 12.7625 10.8425 12.7128Z" fill="#D3427A"/>
</svg>
