<svg width="273" height="150" viewBox="0 0 273 150" fill="none" xmlns="http://www.w3.org/2000/svg">
<ellipse cx="144.8" cy="53.5" rx="43.5" ry="42.5" fill="#FFEBF2"/>
<path d="M115.999 83.9731L133.378 93.6367L107.655 139.895C104.987 144.694 98.9332 146.421 94.1342 143.752C89.3353 141.084 87.6082 135.03 90.2767 130.231L115.999 83.9731Z" fill="#FFE1EB"/>
<path d="M108.802 83.7598L122.714 91.4958L96.9239 137.876C94.7876 141.718 89.9415 143.1 86.0998 140.964C82.2581 138.828 80.8755 133.982 83.0117 130.14L108.802 83.7598Z" stroke="#D3427A" stroke-width="7"/>
<path d="M139.657 0C139.674 0 139.689 0 139.706 0.00252274C140.964 0.0706366 142.067 0.201819 143.318 0.476797C146.768 1.23362 150.226 1.95512 153.591 3.2291C170.745 9.72011 183.065 27.6568 183.295 46.3603C183.513 64.0321 176.181 77.4909 162.178 87.4658C161.81 87.7282 161.431 87.9704 161.048 88.2075C159.402 89.2267 157.701 89.489 156.584 87.6172C155.526 85.8412 156.238 84.1661 157.892 83.1494C161.147 81.1489 163.972 78.6564 166.603 75.8839C184.311 57.1955 179.792 24.9019 157.699 11.9956C151.262 8.23674 144.464 6.00411 136.997 6.17314C131.922 6.28918 129.524 9.22817 130.147 14.4174C130.751 19.4402 132.807 23.8272 135.38 28.0831C139.756 35.3133 143.945 42.6595 148.227 49.9502C148.229 49.9552 148.232 49.9578 148.234 49.9628C148.642 50.6439 149.695 50.3866 149.759 49.5894C149.806 48.9865 149.69 48.3937 149.68 47.8361C149.569 40.0737 150.773 32.5483 153.46 25.2778C154.157 23.3933 155.242 21.8822 157.444 22.6971C159.812 23.5725 159.548 25.4897 158.856 27.4928C154.241 40.8633 154.878 54.254 158.868 67.6169C159.439 69.5317 159.817 71.3657 157.711 72.3269C155.679 73.2527 154.401 71.9535 153.378 70.2052C144.929 55.7651 136.396 41.3754 128.002 26.9025C125.555 22.6819 124.247 18.0527 124.301 13.0526C124.376 6.30937 126.949 2.86331 133.106 0.771957C133.215 0.734116 133.42 0.66348 133.531 0.633207C134.799 0.277501 136.332 0.0882958 137.647 0.0100909C137.669 0 137.687 0 137.706 0H139.657Z" fill="#D3427A"/>
<path d="M123.336 43.9471C123.376 49.7702 123.298 55.3354 122.212 60.8349C121.587 63.9941 120.58 67.0244 119.573 70.0573C118.903 72.0716 117.475 73.1078 115.36 72.2662C113.217 71.4145 113.464 69.711 114.082 67.8964C118.679 54.418 118.342 40.9269 114.097 27.4486C113.504 25.5682 113.16 23.7182 115.295 22.7098C117.533 21.6533 118.793 23.1141 119.855 24.9111C128.017 38.7433 136.205 52.5604 144.368 66.3951C146.76 70.449 148.397 74.8289 149.097 79.4843C150.43 88.3402 145.09 95.0478 136.262 94.9997C119.364 94.9062 105.984 87.4379 96.9193 73.1356C84.4187 53.4172 87.6229 28.9624 104.157 12.8708C106.507 10.5835 109.116 8.61721 111.897 6.87587C113.673 5.76383 115.275 5.45044 116.548 7.50518C117.869 9.63574 116.631 10.9399 114.961 11.9963C108.291 16.222 103.116 21.8378 99.6003 28.9877C91.9135 44.6194 94.7715 63.5038 106.547 75.8853C114.508 84.256 124.073 88.9341 135.657 88.9341C141.405 88.9341 143.747 86.3082 143.154 80.5028C142.731 76.3378 141.109 72.5897 138.973 69.0185C134.291 61.1888 129.702 53.3059 125.062 45.4509C124.748 44.9202 124.509 44.2757 123.336 43.9471Z" fill="#D3427A"/>
<g clip-path="url(#clip0_1717_6829)">
<path d="M20.6341 86.8574C21.5998 85.8994 22.7667 85.8112 23.8018 86.2114C23.8599 86.178 23.9392 86.1633 24.0214 86.1986C26.7926 87.5091 28.2934 91.2479 27.725 94.3764C28.2991 93.231 28.3325 91.7465 28.0183 90.3124C28.7489 89.9591 29.4197 89.4391 30.0371 88.8621L30.3582 89.214C29.0641 90.3815 29.0106 93.7503 28.5733 95.008C28.1876 96.1224 27.428 97.0082 26.9696 98.0768C26.8192 98.4162 26.9399 98.94 26.9797 99.2783C27.0201 99.6265 27.0012 99.9882 26.9517 100.342C24.1342 100.466 21.9329 99.994 21.2288 96.8597C20.7668 94.7832 20.7658 92.7097 20.1447 90.6524C19.7142 89.2852 19.4786 87.9968 20.6341 86.8574Z" fill="#FFEBF2"/>
<path d="M30.6317 90.6307C31.2475 87.9702 35.139 89.7662 36.107 90.561C37.9597 92.0955 37.0983 95.0108 36.3161 96.8796C36.3072 96.9002 36.2978 96.9107 36.289 96.9313C35.9464 97.7527 35.4904 98.5206 34.9528 99.2632C34.3871 100.038 33.8372 100.741 33.4786 101.633C33.3658 101.93 33.2429 102.228 33.1189 102.506C33.1583 102.493 33.1865 102.462 33.2147 102.43C33.7034 101.881 34.2474 101.248 34.7885 100.565C34.7178 101.24 34.6271 101.917 34.3538 102.554C34.2833 102.718 34.5687 102.802 34.6509 102.667C35.1069 101.899 35.4108 101.1 35.4187 100.208C35.4217 100.087 35.3466 100.001 35.245 99.9774C36.6585 98.1117 37.943 95.923 38.1223 93.849C39.196 93.1953 40.1952 92.1251 41.0383 90.9539C40.7678 91.9815 41.3269 93.3211 41.3847 94.3094C41.509 96.4358 41.2897 98.6824 40.8233 100.813C40.7763 100.866 40.7698 100.927 40.7839 100.996C40.768 101.067 40.7521 101.138 40.7362 101.209C40.1148 101.546 38.2499 102.887 38.2499 102.887C37.3207 103.442 36.3258 103.901 35.3403 104.349C33.4673 105.21 31.5426 106.214 29.4785 106.375C26.5376 106.617 27.5003 102.864 27.7135 101.199C27.8318 100.311 27.9613 99.6118 27.8688 98.7157C27.7951 97.9687 28.6398 97.168 28.9525 96.5187C29.5342 95.3327 30.0802 94.0487 30.2745 92.7451C30.3834 92.0376 30.4723 91.3312 30.6317 90.6307Z" fill="#FFEBF2"/>
<path d="M36.0142 81.9516C36.5322 81.5607 37.0597 81.1592 37.5755 80.7284C38.4176 82.1116 39.5517 83.3475 40.7844 84.3873C41.2165 84.7528 43.0328 86.1792 44.0781 86.2383C43.7428 86.1577 43.3594 85.9397 42.9714 85.6419L43.2792 85.2532C43.8686 85.7397 44.3635 85.9812 44.6091 85.7264L45.0506 86.0813C44.8278 86.5551 44.5957 87.0395 44.1094 87.2883C43.405 88.261 42.5966 89.1697 41.6444 90.0168C42.1562 89.1755 42.577 88.3194 42.8826 87.5503C42.9349 87.417 42.8592 87.3213 42.7564 87.2772C41.6537 88.8041 40.8145 90.3858 39.4711 91.7365C39.0528 92.2919 38.6139 92.8384 38.1434 93.3568C38.1444 92.0044 37.6182 90.7129 36.2815 89.609C34.872 88.4593 32.5566 88.2641 30.8511 88.9047C30.6649 88.9757 30.5011 89.0854 30.3484 89.2146L30.0273 88.8627C30.5207 88.3931 30.993 87.9047 31.4365 87.438C33.079 85.7193 34.7486 83.9488 36.0142 81.9516Z" fill="#FFEBF2"/>
<path d="M24.3394 47.0833C24.8704 45.1991 27.0518 45.5023 28.0085 46.7887C28.4651 47.4031 28.7966 48.1049 29.1757 48.7639C29.9674 50.1401 31.0163 51.2908 32.265 52.2596C34.1119 53.6943 36.1879 54.5946 38.4027 55.1263C39.3375 55.3521 40.2882 55.5069 41.2758 55.6095C44.9546 55.9954 48.6176 54.5693 52.3051 55.2753C54.5235 55.6965 56.5237 56.8418 58.1868 58.3874C58.9851 59.0218 59.7183 59.7403 60.3534 60.4945C60.8705 61.1154 61.7246 62.0171 62.3115 62.9745C61.7048 61.5074 60.8738 60.1435 59.8713 58.93C64.2609 56.9104 69.4034 61.0874 71.9773 64.1624C75.0905 67.8971 77.9028 75.5661 71.0229 77.3105C70.7966 76.1818 70.3696 75.0448 69.6835 73.9329C69.6066 73.8172 69.3917 73.9099 69.4597 74.0462C71.3009 78.1257 70.8333 81.7792 68.6486 85.7034C66.8817 88.8919 64.2135 91.5722 61.4791 93.9759C58.8981 96.2604 56.1133 98.3164 53.3373 100.352C51.147 101.952 49.4997 102.389 46.8712 102.663C46.1242 102.737 41.2301 103.494 41.6599 101.936C42.4066 99.2879 42.7448 96.1628 42.4258 93.4468C42.3638 92.8995 42.2729 92.3739 42.1809 91.8284C41.7802 90.9703 42.7096 89.9042 43.2541 89.2814C44.0137 88.3956 45.0687 87.5926 45.5987 86.5499C46.1723 85.3945 47.7355 80.6051 49.683 81.3627C49.7241 81.3804 49.7558 81.4086 49.7875 81.4368C49.9302 81.4785 50.084 81.5396 50.249 81.6202C51.6827 82.3277 52.6494 83.6135 52.916 85.0904C52.9583 85.128 52.9912 85.1762 52.9953 85.2461C53.1665 87.3196 52.2745 89.1949 50.9467 90.8151C50.2741 91.6458 49.5386 92.43 48.7708 93.1761C48.2022 93.7302 47.4597 94.3947 47.2756 95.1868C47.3654 95.1815 47.4535 95.1463 47.5193 95.0724C47.9441 94.6268 48.4181 94.1684 48.9221 93.7082C49.0676 94.1404 49.0939 94.5897 49.1101 95.0395C49.1135 95.44 49.0775 95.8528 48.9811 96.2591C49.0197 96.5774 49.029 96.9074 48.9872 97.2204C49.358 96.5376 49.5356 95.806 49.611 95.0403C49.66 94.5065 49.6679 93.7848 49.4549 93.2263C51.4897 91.3644 53.7331 89.2999 54.0329 86.718C54.212 85.1549 53.8808 83.6016 52.8107 82.432C51.976 81.5192 50.4099 80.0882 49.0034 80.1904C47.4772 80.2997 47.0394 81.2067 46.5879 82.5654C46.418 83.0862 46.217 83.5888 45.9954 84.0826C45.9978 84.1225 45.9895 84.153 45.9719 84.1941C45.6834 84.7419 45.47 85.3754 45.1703 85.9038C45.1439 85.9655 45.1168 86.0171 45.0904 86.0788L44.6489 85.7239C44.6583 85.7134 44.6777 85.7022 44.6865 85.6817C43.6996 85.0782 42.7744 84.5013 41.9261 83.8697C42.3974 84.3931 42.8776 84.8959 43.319 85.2507L43.0112 85.6394C41.7003 84.6342 40.2664 82.7246 39.8949 82.1954C39.7857 82.0415 39.676 81.8776 39.5668 81.7237C39.0726 81.1516 38.6048 80.5178 38.1617 79.7924C37.4857 78.68 37.0979 77.5306 36.9087 76.3497C36.4002 74.6765 36.217 72.9142 36.4931 71.125C36.4355 71.1684 36.378 71.2119 36.3521 71.2835C35.1583 74.3384 35.8325 77.4744 37.3148 80.2125C37.3377 80.2613 37.3706 80.3094 37.4034 80.3576C35.7055 80.9577 34.1242 82.3524 32.5648 83.2649C30.5021 84.4774 28.2866 85.6486 25.9821 86.3243C24.2322 84.6636 21.0444 84.2789 19.3975 86.609C18.6291 87.6857 18.607 88.6787 18.8156 89.8485C15.5994 89.6659 12.6716 89.4463 9.86355 87.8475C8.06058 86.8209 1.47241 82.4179 4.939 80.2018C7.45935 78.592 10.4599 78.8573 13.4363 79.5649C13.451 79.6442 13.5149 79.7105 13.6359 79.7235C13.7669 79.7359 13.8972 79.7383 14.0276 79.7407C14.0904 79.7871 14.182 79.8118 14.2595 79.7672C16.4772 80.3487 18.6649 81.1024 20.6068 81.4196C20.4418 81.3391 20.2874 81.268 20.1541 81.2157C19.7443 81.0593 19.3339 80.893 18.9246 80.7466C17.9676 80.482 17.0269 80.1563 16.0863 79.8307C16.1063 79.8295 16.1263 79.8283 16.1562 79.8266C17.1187 79.8405 18.0688 79.815 19.0254 79.729C23.356 78.5843 27.3696 77.1577 30.9362 74.2546C32.5909 72.9158 33.6822 72.2209 35.1133 70.6547C35.8476 69.8505 36.874 68.3881 37.1884 67.939C37.464 67.1716 37.6886 66.3872 37.9778 65.6791C38.1541 65.2681 38.569 64.4825 38.709 63.7932C39.743 64.1735 40.7428 64.656 41.7402 65.4391C43.4186 66.7334 44.8756 68.0105 46.8942 68.7841C50.6237 70.2088 54.6617 69.5421 58.161 67.7148C58.3654 67.6127 58.1817 67.383 57.9955 67.454C54.0124 69.0591 50.1977 69.2621 46.351 67.3734C43.1224 65.779 41.4088 62.854 37.6338 62.1932C33.8993 61.54 31.0864 60.3722 28.3198 57.7692C25.5655 55.2056 23.2358 50.9943 24.3394 47.0833ZM37.0644 71.302C37.028 71.3642 36.9604 71.4082 36.8811 71.4229C36.7969 72.0388 36.7632 72.6619 36.7888 73.2714C36.8425 72.6472 36.9355 72.0107 37.0585 71.3724C37.0667 71.3419 37.0656 71.3219 37.0644 71.302ZM61.6174 62.9249C61.8779 63.4406 62.1191 63.9674 62.3203 64.4966C62.3444 64.5653 62.3966 64.6023 62.4582 64.6287C62.3722 64.0127 61.9666 63.4153 61.6174 62.9249ZM62.3472 72.8392C62.5152 72.629 62.1659 72.4792 62.0026 72.5989C57.613 75.9908 54.5963 81.2759 55.3166 86.7432C55.3359 86.9023 55.6137 86.856 55.6249 86.7051C55.9489 83.8513 56.2275 81.4209 57.6783 78.8218C58.9217 76.6155 60.7598 74.8152 62.3472 72.8392ZM44.806 88.2391C44.6444 88.3887 44.5034 88.5472 44.3525 88.7063C44.1451 88.9288 43.7468 89.3127 43.3708 89.7354C43.5811 89.5628 43.772 89.4014 43.9236 89.2523C44.2355 88.9335 44.5263 88.596 44.806 88.2391Z" fill="#FFEBF2"/>
<path d="M23.7027 46.2994C24.8918 43.1647 28.219 44.7332 29.3792 46.759C30.4942 48.6972 31.4641 50.8944 33.261 52.3319C34.7533 53.5269 36.5751 54.362 38.4934 54.7908L38.4035 55.1366C36.1887 54.605 34.1231 53.714 32.2657 52.2699C31.0171 51.3011 29.9675 50.1404 29.1765 48.7742C28.7974 48.1152 28.4658 47.4134 28.0092 46.799C27.0525 45.5126 24.8711 45.2094 24.3401 47.0936C23.2365 51.0047 25.5762 55.2153 28.3005 57.7807C31.0672 60.3837 33.8801 61.5515 37.6146 62.2047C41.3996 62.865 43.1032 65.7905 46.3317 67.3848C50.1785 69.2736 53.9832 69.0712 57.9763 67.4655C58.1624 67.3945 58.3462 67.6241 58.1418 67.7262C54.6325 69.5542 50.6045 70.2203 46.875 68.7955C44.8564 68.022 43.3994 66.7449 41.721 65.4506C40.7242 64.6775 39.7237 64.185 38.6898 63.8047C38.5498 64.494 38.1249 65.2802 37.9586 65.6906C37.6694 66.3987 37.4448 67.1831 37.1691 67.9505C36.8548 68.3996 35.8284 69.862 35.0941 70.6662C33.653 72.233 32.5717 72.9273 30.917 74.2661C27.3503 77.1692 23.3368 78.5958 19.0062 79.7405C18.0496 79.8265 17.0894 79.8525 16.137 79.8381L16.1483 79.5169C17.4267 79.4522 18.7615 79.1538 19.7516 78.9557C22.7126 78.3719 25.5323 77.0851 28.1595 75.5893C30.6217 74.1832 32.9142 72.4465 34.7612 70.285C35.5861 69.3152 36.2641 68.2338 36.8083 67.0901C37.1732 66.3075 37.607 65.3305 37.6243 64.4279C37.7478 64.1402 37.8812 63.852 37.9846 63.5654C36.9436 63.2356 35.8567 62.9786 34.7042 62.6253C28.5443 60.7515 21.0289 53.3375 23.7027 46.2994Z" fill="#D3427A"/>
<path d="M88.7998 63.5001C89.2998 63.0001 89.7998 62.5001 89.984 61.6976C89.7937 61.869 89.594 62.0509 89.4037 62.2223C87.2109 64.1235 84.8719 65.9231 82.5383 67.6422C81.0205 68.7527 79.437 69.7668 77.7977 70.684C77.3031 70.9634 76.7863 71.2039 76.334 71.5209C76.0326 68.9341 74.4873 66.4901 73.0458 64.4507C72.4126 63.5561 71.437 62.4612 70.2541 61.4184C73.2931 61.1406 76.1868 59.7494 78.847 58.1314C78.854 58.0809 78.8916 58.0386 78.9598 58.0046C79.2417 57.8579 79.513 57.7018 79.7944 57.5451C80.1515 57.3139 80.5086 57.0827 80.8557 56.852C83.7685 54.9288 86.4606 52.4875 88.5598 49.6702C88.6972 49.4518 88.8347 49.2334 88.9722 49.015C89.4458 48.206 89.7773 47.3652 90.1288 46.5233C90.0795 46.5362 90.0207 46.5596 89.9837 46.6119C89.0284 47.9199 88.008 49.1415 86.9452 50.3255C86.786 50.5151 86.6268 50.7048 86.4571 50.885C86.3819 50.9695 86.3067 51.054 86.2315 51.1386C86.2403 51.118 86.2397 51.108 86.2385 51.0881C86.03 51.2906 85.8203 51.4731 85.5906 51.6568C85.4784 51.7936 85.3762 51.9298 85.2634 52.0566C85.2552 52.0872 85.2469 52.1177 85.2287 52.1488C83.8935 53.469 82.4631 54.7045 80.896 55.8279C79.1662 57.081 77.2755 58.1531 75.3679 59.1061C73.5572 60.0033 71.5993 60.268 69.7681 60.9861C66.7026 58.4106 62.5135 56.3215 59.4521 58.4437C58.1549 56.9869 56.5904 55.7561 54.8344 54.8471C54.4422 54.6496 54.0418 54.4827 53.6537 54.3551C49.8853 53.1229 45.8957 54.9589 41.9976 55.1066C40.8285 55.1549 39.6394 55.0341 38.4926 54.7806L38.4027 55.1264C39.3374 55.3523 40.2881 55.5071 41.2758 55.6096C44.9546 55.9956 48.6176 54.5694 52.3051 55.2754C54.5234 55.6967 56.5237 56.8419 58.1867 58.3875C58.9851 59.022 59.7183 59.7404 60.3533 60.4946C60.8705 61.1155 61.7245 62.0172 62.3114 62.9746C61.7048 61.5075 60.8738 60.1437 59.8712 58.9301C64.2609 56.9105 69.4034 61.0875 71.9672 64.1632C75.0805 67.8978 77.8928 75.5668 71.0129 77.3113L71.0427 77.4798C73.3148 77.1066 75.9278 76.0523 76.3169 73.4552C76.3893 72.9801 76.4018 72.5086 76.3744 72.0394C77.3323 71.4625 78.5257 71.1423 79.4871 70.6253C81.0594 69.7621 82.5337 68.6599 84.0068 67.6422C85.8746 66.351 86.9069 65.3929 88.7998 63.5001Z" fill="#D3427A"/>
<path d="M2.85723 80.9147C3.95552 78.797 7.19609 78.0266 9.38813 78.1689C10.6952 78.2528 11.9336 78.531 13.1361 78.8814C13.9198 79.4366 14.9991 79.5639 16.1178 79.5085L16.1065 79.8297C16.0865 79.8309 16.0666 79.832 16.0366 79.8338C16.9772 80.1595 17.9172 80.4751 18.8749 80.7497C19.2847 80.9061 19.6945 81.0624 20.1044 81.2188C20.2376 81.2711 20.3921 81.3422 20.557 81.4227C18.6152 81.1055 16.4375 80.3513 14.2098 79.7703C14.1317 79.8049 14.0407 79.7902 13.9778 79.7438C13.8469 79.7314 13.7165 79.729 13.5862 79.7266C13.4652 79.7136 13.4012 79.6473 13.3866 79.568C10.4102 78.8605 7.41961 78.5945 4.88927 80.2049C1.4127 82.4216 8.00087 86.8246 9.81383 87.8506C12.6213 89.4395 15.5497 89.669 18.7659 89.8516L18.8051 90.0096C15.1012 90.9073 11.0899 89.4589 8.10985 87.4894C6.61985 86.5047 1.53504 83.4863 2.85723 80.9147Z" fill="#D3427A"/>
<path d="M16.9532 78.8888C16.3959 78.9515 15.7681 79.0082 15.1556 78.9839C16.218 78.8216 17.3173 78.7774 18.4048 78.7038C17.9286 78.7817 17.4511 78.8397 16.9532 78.8888Z" fill="#D3427A"/>
<path d="M36.3119 71.2762C36.3378 71.2046 36.3954 71.1611 36.4529 71.1177C36.1775 72.9168 36.37 74.6686 36.8685 76.3423C37.0578 77.5233 37.4555 78.6721 38.1216 79.7851C38.5646 80.5105 39.0224 81.1448 39.5267 81.7164C39.6358 81.8703 39.7356 82.0347 39.8547 82.188C40.2263 82.7173 41.6601 84.6268 42.971 85.6321C43.3591 85.9299 43.7424 86.1479 44.0777 86.2285C43.0325 86.1694 41.2156 84.733 40.7841 84.3775C39.5513 83.3377 38.4178 82.1118 37.5751 80.7186C37.0588 81.1394 36.5419 81.5503 36.0138 81.9418C34.7488 83.949 33.0687 85.71 31.4362 87.4282C30.9927 87.8949 30.5209 88.3933 30.0269 88.8529C29.4095 89.4299 28.7387 89.9499 28.0081 90.3032C28.3223 91.7373 28.2883 93.2118 27.7148 94.3672C28.2832 91.2387 26.7924 87.4993 24.0112 86.1894C23.929 86.1541 23.8597 86.1682 23.7916 86.2022C22.7565 85.802 21.5897 85.8902 20.6239 86.8482C19.4684 87.9876 19.704 89.276 20.1146 90.6444C20.7357 92.7017 20.7367 94.7751 21.1987 96.8517C21.9028 99.986 24.1041 100.458 26.9216 100.334L26.8498 100.819C23.7713 101.449 20.9061 100.415 20.3289 97.0528C19.9328 94.732 19.3546 92.552 18.851 90.2775C18.8252 90.1788 18.81 90.0896 18.7947 90.0003L18.7654 89.8418C18.5468 88.6725 18.5783 87.669 19.3474 86.6023C20.9942 84.2722 24.1821 84.6568 25.932 86.3175C28.2359 85.6319 30.4414 84.4612 32.5147 83.2582C34.0735 82.3357 35.6554 80.951 37.3533 80.3509C37.3304 80.3021 37.2975 80.254 37.2647 80.2058C35.7929 77.477 35.1182 74.3311 36.3119 71.2762ZM31.5893 84.7347C30.1609 85.4894 28.2725 86.7717 26.5436 87.013C27.1094 87.7813 27.5876 88.7651 27.8897 89.8193C30.2833 87.9264 32.0969 85.5365 34.0784 83.277C33.2873 83.794 32.4632 84.2629 31.5893 84.7347Z" fill="#D3427A"/>
<path d="M36.8814 71.4228C36.9507 71.4088 37.0282 71.3642 37.0646 71.3019C37.0664 71.3319 37.067 71.3419 37.0587 71.3724C36.9358 72.0107 36.8428 72.6472 36.7891 73.2714C36.7635 72.6618 36.7972 72.0388 36.8814 71.4228Z" fill="#D3427A"/>
<path d="M62.3201 64.4867C62.1189 63.9575 61.8777 63.4307 61.6172 62.915C61.9664 63.4055 62.3725 64.0128 62.468 64.6183C62.397 64.6024 62.3442 64.5554 62.3201 64.4867Z" fill="#D3427A"/>
<path d="M30.3484 89.2145C30.5006 89.0754 30.6645 88.9657 30.8512 88.9047C32.5567 88.2641 34.8721 88.4593 36.2816 89.609C37.6177 90.7029 38.1439 91.9944 38.1434 93.3567C38.6134 92.8284 39.0528 92.2918 39.4712 91.7365C40.8146 90.3858 41.6643 88.8135 42.7565 87.2772C42.8593 87.3212 42.9356 87.427 42.8827 87.5503C42.577 88.3194 42.1563 89.1754 41.6445 90.0167C42.5967 89.1697 43.405 88.261 44.1095 87.2882C44.5958 87.0394 44.8279 86.5551 45.0506 86.0812C45.0771 86.0196 45.1041 85.9679 45.1306 85.9063C45.4303 85.3779 45.6436 84.7444 45.9322 84.1966C45.9498 84.1555 45.958 84.125 45.9557 84.085C46.1673 83.5918 46.3683 83.0893 46.5482 82.5679C47.0096 81.2086 47.4475 80.3015 48.9637 80.1929C50.3701 80.0906 51.9363 81.5217 52.771 82.4345C53.8411 83.6041 54.1828 85.1668 53.9932 86.7205C53.6828 89.293 51.45 91.3668 49.4152 93.2287C49.6287 93.7972 49.6208 94.5189 49.5713 95.0427C49.4953 95.7984 49.3182 96.54 48.9475 97.2228C48.9893 96.9099 48.98 96.5798 48.9414 96.2616C49.0378 95.8552 49.0744 95.4524 49.0704 95.0419C49.0541 94.5921 49.0273 94.1329 48.8824 93.7106C48.3784 94.1708 47.9043 94.6293 47.4796 95.0748C47.4138 95.1488 47.3251 95.174 47.2359 95.1892C47.42 94.3972 48.163 93.7427 48.7311 93.1786C49.4989 92.4325 50.2343 91.6482 50.907 90.8176C52.2253 89.2079 53.1174 87.3326 52.9555 85.2485C52.9514 85.1787 52.9186 85.1305 52.8763 85.0929C52.6097 83.6159 51.643 82.3302 50.2093 81.6226C50.0443 81.5421 49.8904 81.481 49.7478 81.4392C49.726 81.4105 49.6944 81.3823 49.6433 81.3652C47.6957 80.6076 46.1425 85.3964 45.559 86.5524C45.029 87.5951 43.974 88.398 43.2144 89.2839C42.6698 89.9067 41.7504 90.9722 42.1412 91.8308C42.2226 92.367 42.324 92.902 42.3861 93.4493C42.7051 96.1653 42.3669 99.2904 41.6202 101.938C41.1803 103.497 46.0845 102.739 46.8315 102.666C49.4705 102.401 51.1079 101.965 53.2976 100.354C56.0736 98.3189 58.8577 96.2529 61.4394 93.9783C64.1638 91.5753 66.8314 88.885 68.6089 85.7059C70.7936 81.7817 71.2612 78.1282 69.42 74.0487C69.3519 73.9124 69.5669 73.8197 69.6438 73.9354C70.3304 75.0572 70.7569 76.1843 70.9832 77.313L71.0131 77.4815C72.2636 84.4805 65.4487 91.4501 60.2344 95.8118C56.8245 98.6556 52.9714 102.828 48.419 103.434C47.2064 103.595 39.6501 105.079 40.4456 102.238C40.445 102.228 40.4444 102.218 40.4544 102.217C38.8789 103.882 36.138 104.803 34.2451 105.665C32.0984 106.642 29.9624 107.458 27.6148 107.054C25.4593 106.68 26.5216 103.262 26.6807 101.87C26.7208 101.527 26.7902 101.173 26.8502 100.828L26.922 100.343C26.9709 99.98 26.9904 99.6282 26.95 99.28C26.9102 98.9418 26.8 98.4273 26.9399 98.0785C27.3983 97.01 28.1579 96.1241 28.5435 95.0097C29.0014 93.7609 29.0444 90.3826 30.3484 89.2145ZM36.1068 90.5608C35.1388 89.7659 31.2473 87.97 30.6315 90.6304C30.4722 91.3309 30.3832 92.0373 30.2749 92.7549C30.0806 94.0584 29.5346 95.3425 28.9529 96.5284C28.6396 97.1678 27.7955 97.9784 27.8692 98.7254C27.9611 99.6116 27.8222 100.321 27.7139 101.209C27.5007 102.874 26.538 106.627 29.4789 106.385C31.5431 106.224 33.4677 105.22 35.3407 104.359C36.3262 103.911 37.3112 103.452 38.2503 102.897C38.2503 102.897 40.1153 101.556 40.7367 101.219C40.7525 101.148 40.7684 101.077 40.7843 101.006C40.7708 100.946 40.7773 100.886 40.8237 100.823C41.2902 98.6922 41.5094 96.4456 41.3851 94.3192C41.3279 93.3409 40.7688 92.0012 41.0387 90.9637C40.2062 92.1443 39.2064 93.2044 38.1227 93.8588C37.9434 95.9328 36.659 98.1215 35.2454 99.9871C35.3476 100.021 35.4221 100.097 35.4192 100.217C35.4106 101.099 35.1067 101.898 34.6513 102.676C34.5697 102.821 34.2837 102.728 34.3543 102.564C34.6275 101.926 34.7282 101.249 34.7889 100.575C34.2479 101.258 33.7033 101.88 33.2151 102.44C33.1869 102.471 33.1481 102.494 33.1193 102.516C33.2428 102.228 33.3662 101.94 33.479 101.643C33.8376 100.751 34.3875 100.047 34.9532 99.273C35.4902 98.5203 35.9462 97.7524 36.2894 96.941C36.2983 96.9205 36.3077 96.9099 36.3165 96.8893C37.0982 95.0105 37.9595 92.0953 36.1068 90.5608Z" fill="#D3427A"/>
<path d="M43.2792 85.2531C42.8471 84.8877 42.3676 84.3949 41.8862 83.8721C42.7345 84.5036 43.6498 85.0812 44.6467 85.6841C44.6379 85.7046 44.6185 85.7158 44.6091 85.7263C44.3641 85.9911 43.8686 85.7396 43.2792 85.2531Z" fill="#D3427A"/>
<path d="M62.0029 72.599C62.1656 72.4693 62.5056 72.6297 62.3475 72.8393C60.7601 74.8153 58.932 76.615 57.6893 78.8313C56.2384 81.4304 55.9598 83.8608 55.6358 86.7146C55.6246 86.8655 55.3468 86.9118 55.3275 86.7527C54.5972 81.286 57.6134 75.9909 62.0029 72.599Z" fill="#D3427A"/>
<path d="M44.3618 88.6959C44.5027 88.5374 44.6543 88.3883 44.8153 88.2287C44.5356 88.5856 44.2348 88.9237 43.9329 89.2419C43.7913 89.3904 43.5904 89.5524 43.3801 89.725C43.7461 89.3029 44.155 88.9284 44.3618 88.6959Z" fill="#D3427A"/>
</g>
<g clip-path="url(#clip1_1717_6829)">
<path d="M252.11 86.8574C251.144 85.8994 249.977 85.8112 248.942 86.2114C248.884 86.178 248.804 86.1633 248.722 86.1986C245.951 87.5091 244.45 91.2479 245.019 94.3764C244.445 93.231 244.411 91.7465 244.725 90.3124C243.995 89.9591 243.324 89.4391 242.707 88.8621L242.385 89.214C243.68 90.3815 243.733 93.7503 244.17 95.008C244.556 96.1224 245.316 97.0082 245.774 98.0768C245.924 98.4162 245.804 98.94 245.764 99.2783C245.724 99.6265 245.742 99.9882 245.792 100.342C248.609 100.466 250.811 99.994 251.515 96.8597C251.977 94.7832 251.978 92.7097 252.599 90.6524C253.029 89.2852 253.265 87.9968 252.11 86.8574Z" fill="#FFEBF2"/>
<path d="M242.112 90.6307C241.496 87.9702 237.605 89.7662 236.637 90.561C234.784 92.0955 235.645 95.0108 236.428 96.8796C236.436 96.9002 236.446 96.9107 236.455 96.9313C236.797 97.7527 237.253 98.5206 237.791 99.2632C238.357 100.038 238.906 100.741 239.265 101.633C239.378 101.93 239.501 102.228 239.625 102.506C239.585 102.493 239.557 102.462 239.529 102.43C239.04 101.881 238.496 101.248 237.955 100.565C238.026 101.24 238.117 101.917 238.39 102.554C238.46 102.718 238.175 102.802 238.093 102.667C237.637 101.899 237.333 101.1 237.325 100.208C237.322 100.087 237.397 100.001 237.499 99.9774C236.085 98.1117 234.801 95.923 234.621 93.849C233.548 93.1953 232.548 92.1251 231.705 90.9539C231.976 91.9815 231.417 93.3211 231.359 94.3094C231.235 96.4358 231.454 98.6824 231.92 100.813C231.967 100.866 231.974 100.927 231.96 100.996C231.976 101.067 231.992 101.138 232.007 101.209C232.629 101.546 234.494 102.887 234.494 102.887C235.423 103.442 236.418 103.901 237.403 104.349C239.276 105.21 241.201 106.214 243.265 106.375C246.206 106.617 245.243 102.864 245.03 101.199C244.912 100.311 244.782 99.6118 244.875 98.7157C244.949 97.9687 244.104 97.168 243.791 96.5187C243.209 95.3327 242.663 94.0487 242.469 92.7451C242.36 92.0376 242.271 91.3312 242.112 90.6307Z" fill="#FFEBF2"/>
<path d="M236.729 81.9516C236.211 81.5607 235.684 81.1592 235.168 80.7284C234.326 82.1116 233.192 83.3475 231.959 84.3873C231.527 84.7528 229.711 86.1792 228.666 86.2383C229.001 86.1577 229.384 85.9397 229.772 85.6419L229.464 85.2532C228.875 85.7397 228.38 85.9812 228.135 85.7264L227.693 86.0813C227.916 86.5551 228.148 87.0395 228.634 87.2883C229.339 88.261 230.147 89.1697 231.099 90.0168C230.587 89.1755 230.167 88.3194 229.861 87.5503C229.809 87.417 229.884 87.3213 229.987 87.2772C231.09 88.8041 231.929 90.3858 233.273 91.7365C233.691 92.2919 234.13 92.8384 234.6 93.3568C234.599 92.0044 235.125 90.7129 236.462 89.609C237.872 88.4593 240.187 88.2641 241.893 88.9047C242.079 88.9757 242.243 89.0854 242.395 89.2146L242.716 88.8627C242.223 88.3931 241.751 87.9047 241.307 87.438C239.665 85.7193 237.995 83.9488 236.729 81.9516Z" fill="#FFEBF2"/>
<path d="M248.404 47.0833C247.873 45.1991 245.692 45.5023 244.735 46.7887C244.279 47.4031 243.947 48.1049 243.568 48.7639C242.776 50.1401 241.727 51.2908 240.479 52.2596C238.632 53.6943 236.556 54.5946 234.341 55.1263C233.406 55.3521 232.455 55.5069 231.468 55.6095C227.789 55.9954 224.126 54.5693 220.439 55.2753C218.22 55.6965 216.22 56.8418 214.557 58.3874C213.759 59.0218 213.025 59.7403 212.39 60.4945C211.873 61.1154 211.019 62.0171 210.432 62.9745C211.039 61.5074 211.87 60.1435 212.872 58.93C208.483 56.9104 203.34 61.0874 200.766 64.1624C197.653 67.8971 194.841 75.5661 201.721 77.3105C201.947 76.1818 202.374 75.0448 203.06 73.9329C203.137 73.8172 203.352 73.9099 203.284 74.0462C201.443 78.1257 201.91 81.7792 204.095 85.7034C205.862 88.8919 208.53 91.5722 211.265 93.9759C213.846 96.2604 216.63 98.3164 219.406 100.352C221.597 101.952 223.244 102.389 225.872 102.663C226.619 102.737 231.514 103.494 231.084 101.936C230.337 99.2879 229.999 96.1628 230.318 93.4468C230.38 92.8995 230.471 92.3739 230.563 91.8284C230.963 90.9703 230.034 89.9042 229.49 89.2814C228.73 88.3956 227.675 87.5926 227.145 86.5499C226.571 85.3945 225.008 80.6051 223.061 81.3627C223.02 81.3804 222.988 81.4086 222.956 81.4368C222.813 81.4785 222.66 81.5396 222.495 81.6202C221.061 82.3277 220.094 83.6135 219.828 85.0904C219.785 85.128 219.752 85.1762 219.748 85.2461C219.577 87.3196 220.469 89.1949 221.797 90.8151C222.47 91.6458 223.205 92.43 223.973 93.1761C224.541 93.7302 225.284 94.3947 225.468 95.1868C225.378 95.1815 225.29 95.1463 225.224 95.0724C224.8 94.6268 224.326 94.1684 223.822 93.7082C223.676 94.1404 223.65 94.5897 223.634 95.0395C223.63 95.44 223.666 95.8528 223.763 96.2591C223.724 96.5774 223.715 96.9074 223.756 97.2204C223.386 96.5376 223.208 95.806 223.133 95.0403C223.084 94.5065 223.076 93.7848 223.289 93.2263C221.254 91.3644 219.011 89.2999 218.711 86.718C218.532 85.1549 218.863 83.6016 219.933 82.432C220.768 81.5192 222.334 80.0882 223.74 80.1904C225.266 80.2997 225.704 81.2067 226.156 82.5654C226.326 83.0862 226.527 83.5888 226.748 84.0826C226.746 84.1225 226.754 84.153 226.772 84.1941C227.06 84.7419 227.274 85.3754 227.573 85.9038C227.6 85.9655 227.627 86.0171 227.653 86.0788L228.095 85.7239C228.085 85.7134 228.066 85.7022 228.057 85.6817C229.044 85.0782 229.969 84.5013 230.818 83.8697C230.346 84.3931 229.866 84.8959 229.425 85.2507L229.732 85.6394C231.043 84.6342 232.477 82.7246 232.849 82.1954C232.958 82.0415 233.068 81.8776 233.177 81.7237C233.671 81.1516 234.139 80.5178 234.582 79.7924C235.258 78.68 235.646 77.5306 235.835 76.3497C236.343 74.6765 236.527 72.9142 236.251 71.125C236.308 71.1684 236.366 71.2119 236.392 71.2835C237.585 74.3384 236.911 77.4744 235.429 80.2125C235.406 80.2613 235.373 80.3094 235.34 80.3576C237.038 80.9577 238.619 82.3524 240.179 83.2649C242.242 84.4774 244.457 85.6486 246.762 86.3243C248.511 84.6636 251.699 84.2789 253.346 86.609C254.115 87.6857 254.137 88.6787 253.928 89.8485C257.144 89.6659 260.072 89.4463 262.88 87.8475C264.683 86.8209 271.271 82.4179 267.805 80.2018C265.284 78.592 262.284 78.8573 259.307 79.5649C259.293 79.6442 259.229 79.7105 259.108 79.7235C258.977 79.7359 258.846 79.7383 258.716 79.7407C258.653 79.7871 258.562 79.8118 258.484 79.7672C256.266 80.3487 254.079 81.1024 252.137 81.4196C252.302 81.3391 252.456 81.268 252.59 81.2157C252.999 81.0593 253.41 80.893 253.819 80.7466C254.776 80.482 255.717 80.1563 256.657 79.8307C256.637 79.8295 256.617 79.8283 256.587 79.8266C255.625 79.8405 254.675 79.815 253.718 79.729C249.388 78.5843 245.374 77.1577 241.807 74.2546C240.153 72.9158 239.061 72.2209 237.63 70.6547C236.896 69.8505 235.87 68.3881 235.555 67.939C235.28 67.1716 235.055 66.3872 234.766 65.6791C234.59 65.2681 234.175 64.4825 234.035 63.7932C233.001 64.1735 232.001 64.656 231.003 65.4391C229.325 66.7334 227.868 68.0105 225.849 68.7841C222.12 70.2088 218.082 69.5421 214.583 67.7148C214.378 67.6127 214.562 67.383 214.748 67.454C218.731 69.0591 222.546 69.2621 226.393 67.3734C229.621 65.779 231.335 62.854 235.11 62.1932C238.844 61.54 241.657 60.3722 244.424 57.7692C247.178 55.2056 249.508 50.9943 248.404 47.0833ZM235.679 71.302C235.716 71.3642 235.783 71.4082 235.863 71.4229C235.947 72.0388 235.98 72.6619 235.955 73.2714C235.901 72.6472 235.808 72.0107 235.685 71.3724C235.677 71.3419 235.678 71.3219 235.679 71.302ZM211.126 62.9249C210.866 63.4406 210.625 63.9674 210.423 64.4966C210.399 64.5653 210.347 64.6023 210.285 64.6287C210.371 64.0127 210.777 63.4153 211.126 62.9249ZM210.396 72.8392C210.228 72.629 210.578 72.4792 210.741 72.5989C215.131 75.9908 218.147 81.2759 217.427 86.7432C217.408 86.9023 217.13 86.856 217.119 86.7051C216.795 83.8513 216.516 81.4209 215.065 78.8218C213.822 76.6155 211.984 74.8152 210.396 72.8392ZM227.938 88.2391C228.099 88.3887 228.24 88.5472 228.391 88.7063C228.599 88.9288 228.997 89.3127 229.373 89.7354C229.163 89.5628 228.972 89.4014 228.82 89.2523C228.508 88.9335 228.217 88.596 227.938 88.2391Z" fill="#FFEBF2"/>
<path d="M249.041 46.2994C247.852 43.1647 244.525 44.7332 243.364 46.759C242.249 48.6972 241.28 50.8944 239.483 52.3319C237.99 53.5269 236.169 54.362 234.25 54.7908L234.34 55.1366C236.555 54.605 238.621 53.714 240.478 52.2699C241.727 51.3011 242.776 50.1404 243.567 48.7742C243.946 48.1152 244.278 47.4134 244.734 46.799C245.691 45.5126 247.873 45.2094 248.404 47.0936C249.507 51.0047 247.167 55.2153 244.443 57.7807C241.676 60.3837 238.864 61.5515 235.129 62.2047C231.344 62.865 229.64 65.7905 226.412 67.3848C222.565 69.2736 218.76 69.0712 214.767 67.4655C214.581 67.3945 214.397 67.6241 214.602 67.7262C218.111 69.5542 222.139 70.2203 225.869 68.7955C227.887 68.022 229.344 66.7449 231.023 65.4506C232.019 64.6775 233.02 64.185 234.054 63.8047C234.194 64.494 234.619 65.2802 234.785 65.6906C235.074 66.3987 235.299 67.1831 235.575 67.9505C235.889 68.3996 236.915 69.862 237.65 70.6662C239.091 72.233 240.172 72.9273 241.827 74.2661C245.393 77.1692 249.407 78.5958 253.737 79.7405C254.694 79.8265 255.654 79.8525 256.607 79.8381L256.595 79.5169C255.317 79.4522 253.982 79.1538 252.992 78.9557C250.031 78.3719 247.211 77.0851 244.584 75.5893C242.122 74.1832 239.829 72.4465 237.982 70.285C237.158 69.3152 236.48 68.2338 235.935 67.0901C235.57 66.3075 235.137 65.3305 235.119 64.4279C234.996 64.1402 234.862 63.852 234.759 63.5654C235.8 63.2356 236.887 62.9786 238.039 62.6253C244.199 60.7515 251.715 53.3375 249.041 46.2994Z" fill="#D3427A"/>
<path d="M183.944 63.5001C183.444 63.0001 182.944 62.5001 182.76 61.6976C182.95 61.869 183.15 62.0509 183.34 62.2223C185.533 64.1235 187.872 65.9231 190.205 67.6422C191.723 68.7527 193.307 69.7668 194.946 70.684C195.441 70.9634 195.957 71.2039 196.41 71.5209C196.711 68.9341 198.256 66.4901 199.698 64.4507C200.331 63.5561 201.307 62.4612 202.49 61.4184C199.451 61.1406 196.557 59.7494 193.897 58.1314C193.89 58.0809 193.852 58.0386 193.784 58.0046C193.502 57.8579 193.231 57.7018 192.949 57.5451C192.592 57.3139 192.235 57.0827 191.888 56.852C188.975 54.9288 186.283 52.4875 184.184 49.6702C184.046 49.4518 183.909 49.2334 183.771 49.015C183.298 48.206 182.966 47.3652 182.615 46.5233C182.664 46.5362 182.723 46.5596 182.76 46.6119C183.715 47.9199 184.736 49.1415 185.798 50.3255C185.958 50.5151 186.117 50.7048 186.287 50.885C186.362 50.9695 186.437 51.054 186.512 51.1386C186.503 51.118 186.504 51.108 186.505 51.0881C186.714 51.2906 186.923 51.4731 187.153 51.6568C187.265 51.7936 187.367 51.9298 187.48 52.0566C187.488 52.0872 187.497 52.1177 187.515 52.1488C188.85 53.469 190.281 54.7045 191.848 55.8279C193.577 57.081 195.468 58.1531 197.376 59.1061C199.186 60.0033 201.144 60.268 202.976 60.9861C206.041 58.4106 210.23 56.3215 213.292 58.4437C214.589 56.9869 216.153 55.7561 217.909 54.8471C218.301 54.6496 218.702 54.4827 219.09 54.3551C222.858 53.1229 226.848 54.9589 230.746 55.1066C231.915 55.1549 233.104 55.0341 234.251 54.7806L234.341 55.1264C233.406 55.3523 232.456 55.5071 231.468 55.6096C227.789 55.9956 224.126 54.5694 220.439 55.2754C218.22 55.6967 216.22 56.8419 214.557 58.3875C213.759 59.022 213.025 59.7404 212.39 60.4946C211.873 61.1155 211.019 62.0172 210.432 62.9746C211.039 61.5075 211.87 60.1437 212.872 58.9301C208.483 56.9105 203.34 61.0875 200.776 64.1632C197.663 67.8978 194.851 75.5668 201.731 77.3113L201.701 77.4798C199.429 77.1066 196.816 76.0523 196.427 73.4552C196.354 72.9801 196.342 72.5086 196.369 72.0394C195.411 71.4625 194.218 71.1423 193.257 70.6253C191.684 69.7621 190.21 68.6599 188.737 67.6422C186.869 66.351 185.837 65.3929 183.944 63.5001Z" fill="#D3427A"/>
<path d="M269.886 80.9147C268.788 78.797 265.548 78.0266 263.356 78.1689C262.048 78.2528 260.81 78.531 259.608 78.8814C258.824 79.4366 257.745 79.5639 256.626 79.5085L256.637 79.8297C256.657 79.8309 256.677 79.832 256.707 79.8338C255.766 80.1595 254.826 80.4751 253.869 80.7497C253.459 80.9061 253.049 81.0624 252.639 81.2188C252.506 81.2711 252.352 81.3422 252.187 81.4227C254.128 81.1055 256.306 80.3513 258.534 79.7703C258.612 79.8049 258.703 79.7902 258.766 79.7438C258.897 79.7314 259.027 79.729 259.157 79.7266C259.278 79.7136 259.342 79.6473 259.357 79.568C262.333 78.8605 265.324 78.5945 267.854 80.2049C271.331 82.4216 264.743 86.8246 262.93 87.8506C260.122 89.4395 257.194 89.669 253.978 89.8516L253.939 90.0096C257.642 90.9073 261.654 89.4589 264.634 87.4894C266.124 86.5047 271.209 83.4863 269.886 80.9147Z" fill="#D3427A"/>
<path d="M255.79 78.8888C256.348 78.9515 256.976 79.0082 257.588 78.9839C256.526 78.8216 255.426 78.7774 254.339 78.7038C254.815 78.7817 255.293 78.8397 255.79 78.8888Z" fill="#D3427A"/>
<path d="M236.432 71.2762C236.406 71.2046 236.348 71.1611 236.291 71.1177C236.566 72.9168 236.374 74.6686 235.875 76.3423C235.686 77.5233 235.288 78.6721 234.622 79.7851C234.179 80.5105 233.721 81.1448 233.217 81.7164C233.108 81.8703 233.008 82.0347 232.889 82.188C232.517 82.7173 231.084 84.6268 229.773 85.6321C229.385 85.9299 229.001 86.1479 228.666 86.2285C229.711 86.1694 231.528 84.733 231.96 84.3775C233.192 83.3377 234.326 82.1118 235.169 80.7186C235.685 81.1394 236.202 81.5503 236.73 81.9418C237.995 83.949 239.675 85.71 241.307 87.4282C241.751 87.8949 242.223 88.3933 242.717 88.8529C243.334 89.4299 244.005 89.9499 244.736 90.3032C244.421 91.7373 244.455 93.2118 245.029 94.3672C244.46 91.2387 245.951 87.4993 248.732 86.1894C248.815 86.1541 248.884 86.1682 248.952 86.2022C249.987 85.802 251.154 85.8902 252.12 86.8482C253.275 87.9876 253.04 89.276 252.629 90.6444C252.008 92.7017 252.007 94.7751 251.545 96.8517C250.841 99.986 248.64 100.458 245.822 100.334L245.894 100.819C248.972 101.449 251.838 100.415 252.415 97.0528C252.811 94.732 253.389 92.552 253.893 90.2775C253.918 90.1788 253.934 90.0896 253.949 90.0003L253.978 89.8418C254.197 88.6725 254.165 87.669 253.396 86.6023C251.749 84.2722 248.562 84.6568 246.812 86.3175C244.508 85.6319 242.302 84.4612 240.229 83.2582C238.67 82.3357 237.088 80.951 235.39 80.3509C235.413 80.3021 235.446 80.254 235.479 80.2058C236.951 77.477 237.625 74.3311 236.432 71.2762ZM241.154 84.7347C242.583 85.4894 244.471 86.7717 246.2 87.013C245.634 87.7813 245.156 88.7651 244.854 89.8193C242.46 87.9264 240.647 85.5365 238.665 83.277C239.456 83.794 240.28 84.2629 241.154 84.7347Z" fill="#D3427A"/>
<path d="M235.862 71.4228C235.793 71.4088 235.715 71.3642 235.679 71.3019C235.677 71.3319 235.677 71.3419 235.685 71.3724C235.808 72.0107 235.901 72.6472 235.955 73.2714C235.98 72.6618 235.946 72.0388 235.862 71.4228Z" fill="#D3427A"/>
<path d="M210.424 64.4867C210.625 63.9575 210.866 63.4307 211.126 62.915C210.777 63.4055 210.371 64.0128 210.276 64.6183C210.347 64.6024 210.4 64.5554 210.424 64.4867Z" fill="#D3427A"/>
<path d="M242.395 89.2145C242.243 89.0754 242.079 88.9657 241.892 88.9047C240.187 88.2641 237.872 88.4593 236.462 89.609C235.126 90.7029 234.6 91.9944 234.6 93.3567C234.13 92.8284 233.691 92.2918 233.273 91.7365C231.929 90.3858 231.079 88.8135 229.987 87.2772C229.884 87.3212 229.808 87.427 229.861 87.5503C230.167 88.3194 230.587 89.1754 231.099 90.0167C230.147 89.1697 229.339 88.261 228.634 87.2882C228.148 87.0394 227.916 86.5551 227.693 86.0812C227.667 86.0196 227.64 85.9679 227.613 85.9063C227.313 85.3779 227.1 84.7444 226.811 84.1966C226.794 84.1555 226.786 84.125 226.788 84.085C226.576 83.5918 226.375 83.0893 226.195 82.5679C225.734 81.2086 225.296 80.3015 223.78 80.1929C222.374 80.0906 220.807 81.5217 219.973 82.4345C218.903 83.6041 218.561 85.1668 218.75 86.7205C219.061 89.293 221.294 91.3668 223.328 93.2287C223.115 93.7972 223.123 94.5189 223.172 95.0427C223.248 95.7984 223.425 96.54 223.796 97.2228C223.754 96.9099 223.764 96.5798 223.802 96.2616C223.706 95.8552 223.669 95.4524 223.673 95.0419C223.69 94.5921 223.716 94.1329 223.861 93.7106C224.365 94.1708 224.839 94.6293 225.264 95.0748C225.33 95.1488 225.419 95.174 225.508 95.1892C225.324 94.3972 224.581 93.7427 224.013 93.1786C223.245 92.4325 222.509 91.6482 221.837 90.8176C220.518 89.2079 219.626 87.3326 219.788 85.2485C219.792 85.1787 219.825 85.1305 219.867 85.0929C220.134 83.6159 221.101 82.3302 222.534 81.6226C222.699 81.5421 222.853 81.481 222.996 81.4392C223.018 81.4105 223.049 81.3823 223.1 81.3652C225.048 80.6076 226.601 85.3964 227.185 86.5524C227.715 87.5951 228.77 88.398 229.529 89.2839C230.074 89.9067 230.993 90.9722 230.602 91.8308C230.521 92.367 230.42 92.902 230.358 93.4493C230.039 96.1653 230.377 99.2904 231.123 101.938C231.563 103.497 226.659 102.739 225.912 102.666C223.273 102.401 221.636 101.965 219.446 100.354C216.67 98.3189 213.886 96.2529 211.304 93.9783C208.58 91.5753 205.912 88.885 204.135 85.7059C201.95 81.7817 201.482 78.1282 203.324 74.0487C203.392 73.9124 203.177 73.8197 203.1 73.9354C202.413 75.0572 201.987 76.1843 201.76 77.313L201.731 77.4815C200.48 84.4805 207.295 91.4501 212.509 95.8118C215.919 98.6556 219.772 102.828 224.325 103.434C225.537 103.595 233.094 105.079 232.298 102.238C232.299 102.228 232.299 102.218 232.289 102.217C233.865 103.882 236.606 104.803 238.499 105.665C240.645 106.642 242.781 107.458 245.129 107.054C247.284 106.68 246.222 103.262 246.063 101.87C246.023 101.527 245.953 101.173 245.893 100.828L245.822 100.343C245.773 99.98 245.753 99.6282 245.794 99.28C245.833 98.9418 245.944 98.4273 245.804 98.0785C245.345 97.01 244.586 96.1241 244.2 95.0097C243.742 93.7609 243.699 90.3826 242.395 89.2145ZM236.637 90.5608C237.605 89.7659 241.496 87.97 242.112 90.6304C242.272 91.3309 242.36 92.0373 242.469 92.7549C242.663 94.0584 243.209 95.3425 243.791 96.5284C244.104 97.1678 244.948 97.9784 244.874 98.7254C244.783 99.6116 244.921 100.321 245.03 101.209C245.243 102.874 246.206 106.627 243.265 106.385C241.201 106.224 239.276 105.22 237.403 104.359C236.417 103.911 235.432 103.452 234.493 102.897C234.493 102.897 232.628 101.556 232.007 101.219C231.991 101.148 231.975 101.077 231.959 101.006C231.973 100.946 231.966 100.886 231.92 100.823C231.453 98.6922 231.234 96.4456 231.359 94.3192C231.416 93.3409 231.975 92.0012 231.705 90.9637C232.537 92.1443 233.537 93.2044 234.621 93.8588C234.8 95.9328 236.085 98.1215 237.498 99.9871C237.396 100.021 237.322 100.097 237.324 100.217C237.333 101.099 237.637 101.898 238.092 102.676C238.174 102.821 238.46 102.728 238.389 102.564C238.116 101.926 238.015 101.249 237.955 100.575C238.496 101.258 239.04 101.88 239.529 102.44C239.557 102.471 239.596 102.494 239.624 102.516C239.501 102.228 239.377 101.94 239.265 101.643C238.906 100.751 238.356 100.047 237.79 99.273C237.253 98.5203 236.797 97.7524 236.454 96.941C236.445 96.9205 236.436 96.9099 236.427 96.8893C235.645 95.0105 234.784 92.0953 236.637 90.5608Z" fill="#D3427A"/>
<path d="M229.464 85.2531C229.897 84.8877 230.376 84.3949 230.857 83.8721C230.009 84.5036 229.094 85.0812 228.097 85.6841C228.106 85.7046 228.125 85.7158 228.135 85.7263C228.38 85.9911 228.875 85.7396 229.464 85.2531Z" fill="#D3427A"/>
<path d="M210.741 72.599C210.578 72.4693 210.238 72.6297 210.396 72.8393C211.984 74.8153 213.812 76.615 215.054 78.8313C216.505 81.4304 216.784 83.8608 217.108 86.7146C217.119 86.8655 217.397 86.9118 217.416 86.7527C218.146 81.286 215.13 75.9909 210.741 72.599Z" fill="#D3427A"/>
<path d="M228.382 88.6959C228.241 88.5374 228.089 88.3883 227.928 88.2287C228.208 88.5856 228.509 88.9237 228.811 89.2419C228.952 89.3904 229.153 89.5524 229.364 89.725C228.998 89.3029 228.589 88.9284 228.382 88.6959Z" fill="#D3427A"/>
</g>
<defs>
<clipPath id="clip0_1717_6829">
<rect width="89.39" height="62.72" fill="white" transform="translate(0.545898 46) rotate(-3.34542)"/>
</clipPath>
<clipPath id="clip1_1717_6829">
<rect width="89.39" height="62.72" fill="white" transform="matrix(-0.998296 -0.0583554 -0.0583554 0.998296 272.198 46)"/>
</clipPath>
</defs>
</svg>
