<svg width="38" height="29" viewBox="0 0 38 29" fill="none" xmlns="http://www.w3.org/2000/svg">
<g clip-path="url(#clip0_1036_1723)">
<path d="M6.70166 2.04697C3.44346 5.21611 1.15752 9.60244 0.296586 14.3153C-0.00771129 16.0149 -0.0967738 19.0431 0.118461 20.4903C0.341117 21.997 0.905179 23.4591 1.71416 24.6317C3.72549 27.5485 7.41416 28.8251 10.895 27.8157C12.2606 27.4224 13.3665 26.7544 14.4427 25.6782C15.4892 24.6317 16.0458 23.7411 16.4837 22.4349C17.2036 20.2899 17.0478 17.9595 16.0606 15.963C14.8657 13.536 12.4759 11.7622 9.90791 11.3837C8.83916 11.2278 8.95049 11.3243 9.00245 10.5747C9.11377 9.01611 9.7001 7.43525 10.8134 5.64658C11.4665 4.61494 11.5259 4.76338 9.64073 2.87822C7.65166 0.896573 7.83721 0.948528 6.70166 2.04697ZM9.50713 5.32002C8.77979 6.51494 8.16377 8.029 7.90401 9.31299C7.74073 10.0923 7.71104 11.5989 7.85205 11.9997C7.99307 12.3782 8.1712 12.4747 8.90596 12.5267C11.6001 12.7419 13.9083 14.3302 15.029 16.7497C15.5263 17.8185 15.6228 18.3231 15.6153 19.7333C15.6153 20.8911 15.5931 21.0544 15.4075 21.663C14.6579 24.1271 12.706 26.0196 10.2419 26.6802C9.3587 26.9177 7.58487 26.9251 6.73877 26.6876C3.80713 25.8786 1.80323 23.4517 1.33565 20.1489C1.22432 19.3325 1.23916 16.7646 1.37276 15.7255C1.57315 14.1001 1.90713 12.6677 2.41182 11.2353C3.45088 8.28876 5.21729 5.4165 7.41416 3.12314L7.75557 2.77431L8.77979 3.79853L9.81143 4.83017L9.50713 5.32002Z" fill="#D3427A"/>
<path d="M27.4979 2.35112C23.9131 6.00269 21.6791 10.8566 21.1447 16.1558C21.0186 17.4324 21.1002 20.1191 21.2858 21.032C22.1541 25.1957 25.2268 27.9641 29.1752 28.1348C31.5576 28.2387 33.658 27.4668 35.3576 25.8562C36.7084 24.5723 37.5545 23.0285 37.8885 21.2176C38.0592 20.3195 38.0072 18.5012 37.792 17.6848C36.9459 14.5082 34.5857 12.1926 31.4315 11.4578C31.0826 11.3762 30.6744 11.3094 30.5186 11.3094C30.0584 11.3094 30.0287 11.2574 30.0881 10.53C30.2143 9.00855 30.7709 7.50191 31.8916 5.65386C32.2924 5.00073 32.3666 4.83003 32.3295 4.65191C32.2924 4.50347 31.8174 3.96909 30.7783 2.93003C29.9471 2.1062 29.2197 1.3937 29.1604 1.35659C29.101 1.31948 28.9377 1.28979 28.7967 1.28979C28.5592 1.28979 28.4479 1.38628 27.4979 2.35112ZM30.3924 5.6687C29.2791 7.62066 28.6705 9.91402 28.8635 11.4504C28.9822 12.4078 29.0342 12.4523 29.9916 12.5265C33.0865 12.7715 35.5729 14.768 36.4932 17.7441C36.6787 18.3453 36.6936 18.4937 36.6936 19.6961C36.6936 20.8984 36.6787 21.0469 36.4932 21.648C35.8326 23.7781 34.5264 25.307 32.5596 26.2273C31.5131 26.7172 30.86 26.8582 29.576 26.8582C28.6483 26.8582 28.3588 26.8285 27.8318 26.6875C25.2861 26.0047 23.3193 23.934 22.644 21.2398C22.4065 20.3047 22.3471 19.6441 22.3397 18.1375C22.3397 14.8793 22.9928 11.9922 24.4104 9.04566C25.4494 6.88589 26.5479 5.28277 28.3217 3.33823L28.8338 2.78159L29.858 3.79839L30.8748 4.81519L30.3924 5.6687Z" fill="#D3427A"/>
</g>
<defs>
<clipPath id="clip0_1036_1723">
<rect width="38" height="28" fill="white" transform="translate(0 0.723633)"/>
</clipPath>
</defs>
</svg>
