<svg width="81" height="21" viewBox="0 0 81 21" fill="none" xmlns="http://www.w3.org/2000/svg">
<path d="M8.64062 4.74219L10.4453 8.37891L14.4375 8.95312C15.1484 9.0625 15.4492 9.9375 14.9297 10.457L12.0312 13.2461L12.7148 17.2109C12.8242 17.9219 12.0859 18.4688 11.4297 18.1406L7.875 16.2812L4.29297 18.168C3.63672 18.4961 2.89844 17.9492 3.00781 17.2383L3.69141 13.2734L0.792969 10.457C0.273438 9.9375 0.574219 9.0625 1.28516 8.95312L5.27734 8.37891L7.08203 4.74219C7.41016 4.08594 8.33984 4.11328 8.64062 4.74219Z" fill="#FFB800"/>
<path d="M20.7568 13.1992H23.4023V8.82422C23.293 9.01107 22.4111 10.4694 20.7568 13.1992ZM23.3887 17V14.3818H19.0752V13.2949L23.1084 7.04688H24.9131V13.1992H26.4512V14.3818H24.9336V17H23.3887ZM27.7979 17V15.2705H29.6299V17H27.7979ZM34.8594 17.1572C34.2806 17.1572 33.7201 17.0501 33.1777 16.8359C32.6354 16.6217 32.1592 16.3005 31.749 15.8721L32.5488 14.6963C32.8678 15.07 33.2256 15.3503 33.6221 15.5371C34.0186 15.7194 34.4196 15.8105 34.8252 15.8105C35.3903 15.8105 35.8529 15.6283 36.2129 15.2637C36.5729 14.8945 36.7529 14.391 36.7529 13.7529C36.7529 13.2288 36.6162 12.7845 36.3428 12.4199C36.0739 12.0508 35.707 11.8662 35.2422 11.8662C34.9688 11.8662 34.7113 11.9118 34.4697 12.0029C34.2327 12.0895 34.055 12.2194 33.9365 12.3926L32.3984 12.2285V7.04688H37.8604V8.39355H33.8066L33.7246 11.1211C34.0892 10.6836 34.6794 10.4648 35.4951 10.4648C36.3109 10.4648 36.9922 10.7816 37.5391 11.415C38.0905 12.0485 38.3662 12.8369 38.3662 13.7803C38.3662 14.3044 38.2728 14.7829 38.0859 15.2158C37.8991 15.6442 37.6439 15.9997 37.3203 16.2822C37.0013 16.5602 36.6299 16.7767 36.2061 16.9316C35.7822 17.082 35.3333 17.1572 34.8594 17.1572Z" fill="#333333"/>
<path d="M45.7227 18.0137C45.2344 17.2637 44.8438 16.4707 44.5508 15.6348C44.2617 14.7949 44.1172 13.9551 44.1172 13.1152C44.1172 11.4512 44.6445 9.78516 45.6992 8.11719H46.7422C45.7109 9.75781 45.1953 11.4199 45.1953 13.1035C45.1953 13.8926 45.334 14.7207 45.6113 15.5879C45.8926 16.4512 46.2715 17.2598 46.748 18.0137H45.7227ZM48.6875 17V16.1211H50.334V9.67578C49.9434 9.89062 49.3633 10.1406 48.5938 10.4258V9.41211C48.8828 9.31055 49.2168 9.16992 49.5957 8.99023C49.9785 8.80664 50.3066 8.63281 50.5801 8.46875H51.459V16.1211H53.0059V17H48.6875ZM57.7637 8.31641C58.0801 8.31641 58.377 8.35742 58.6543 8.43945C58.9316 8.51758 59.1758 8.63281 59.3867 8.78516C59.6016 8.9375 59.7852 9.11914 59.9375 9.33008C60.0898 9.53711 60.2051 9.77148 60.2832 10.0332C60.3613 10.2949 60.4004 10.5742 60.4004 10.8711C60.4004 11.1602 60.3633 11.4395 60.2891 11.709C60.2148 11.9746 60.0996 12.2402 59.9434 12.5059C59.791 12.7676 59.6191 13.0195 59.4277 13.2617C59.2363 13.5 59 13.7676 58.7188 14.0645L56.8203 16.0742H60.3652V17H55.4785V16.1211L58.0742 13.3672C58.5195 12.8945 58.8359 12.4727 59.0234 12.1016C59.2148 11.7305 59.3105 11.3496 59.3105 10.959C59.3105 10.4395 59.1699 10.0273 58.8887 9.72266C58.6113 9.41797 58.2148 9.26562 57.6992 9.26562C57.5312 9.26562 57.3574 9.2832 57.1777 9.31836C57.002 9.34961 56.8457 9.38867 56.709 9.43555C56.5723 9.47852 56.4316 9.5332 56.2871 9.59961C56.1426 9.66211 56.0293 9.7168 55.9473 9.76367C55.8691 9.80664 55.7871 9.85352 55.7012 9.9043C55.6191 9.95508 55.5762 9.98047 55.5723 9.98047L55.209 9.10742C55.2129 9.10742 55.25 9.08594 55.3203 9.04297C55.3906 8.99609 55.4609 8.95312 55.5312 8.91406C55.6055 8.875 55.7031 8.82617 55.8242 8.76758C55.9453 8.70508 56.0742 8.65039 56.2109 8.60352C56.3477 8.55273 56.4961 8.50586 56.6562 8.46289C56.8203 8.41602 56.9961 8.38086 57.1836 8.35742C57.375 8.33008 57.5684 8.31641 57.7637 8.31641ZM65.1406 17.1289C64.5156 17.1289 63.9824 16.9453 63.541 16.5781C63.1035 16.2109 62.7754 15.6992 62.5566 15.043C62.3418 14.3828 62.2344 13.6055 62.2344 12.7109C62.2344 11.3086 62.4824 10.2266 62.9785 9.46484C63.4746 8.69922 64.1973 8.31641 65.1465 8.31641C66.084 8.31641 66.793 8.70117 67.2734 9.4707C67.7539 10.2402 67.9941 11.3203 67.9941 12.7109C67.9941 14.082 67.752 15.1621 67.2676 15.9512C66.7832 16.7363 66.0742 17.1289 65.1406 17.1289ZM65.1582 16.1855C66.2754 16.1855 66.834 15.0273 66.834 12.7109C66.834 12.1992 66.8027 11.7402 66.7402 11.334C66.6816 10.9277 66.5879 10.5664 66.459 10.25C66.3301 9.93359 66.1543 9.68945 65.9316 9.51758C65.7129 9.3457 65.4531 9.25977 65.1523 9.25977C64.8398 9.25977 64.5684 9.3457 64.3379 9.51758C64.1074 9.68945 63.9238 9.93359 63.7871 10.25C63.6504 10.5625 63.5488 10.9238 63.4824 11.334C63.416 11.7441 63.3828 12.2031 63.3828 12.7109C63.3828 13.4219 63.4395 14.0293 63.5527 14.5332C63.6699 15.0371 63.8633 15.4395 64.1328 15.7402C64.4023 16.0371 64.7441 16.1855 65.1582 16.1855ZM72.3594 17.1289C71.7344 17.1289 71.2012 16.9453 70.7598 16.5781C70.3223 16.2109 69.9941 15.6992 69.7754 15.043C69.5605 14.3828 69.4531 13.6055 69.4531 12.7109C69.4531 11.3086 69.7012 10.2266 70.1973 9.46484C70.6934 8.69922 71.416 8.31641 72.3652 8.31641C73.3027 8.31641 74.0117 8.70117 74.4922 9.4707C74.9727 10.2402 75.2129 11.3203 75.2129 12.7109C75.2129 14.082 74.9707 15.1621 74.4863 15.9512C74.002 16.7363 73.293 17.1289 72.3594 17.1289ZM72.377 16.1855C73.4941 16.1855 74.0527 15.0273 74.0527 12.7109C74.0527 12.1992 74.0215 11.7402 73.959 11.334C73.9004 10.9277 73.8066 10.5664 73.6777 10.25C73.5488 9.93359 73.373 9.68945 73.1504 9.51758C72.9316 9.3457 72.6719 9.25977 72.3711 9.25977C72.0586 9.25977 71.7871 9.3457 71.5566 9.51758C71.3262 9.68945 71.1426 9.93359 71.0059 10.25C70.8691 10.5625 70.7676 10.9238 70.7012 11.334C70.6348 11.7441 70.6016 12.2031 70.6016 12.7109C70.6016 13.4219 70.6582 14.0293 70.7715 14.5332C70.8887 15.0371 71.082 15.4395 71.3516 15.7402C71.6211 16.0371 71.9629 16.1855 72.377 16.1855ZM76.2324 18.1309C77.2676 16.4941 77.7852 14.8301 77.7852 13.1387C77.7852 12.3535 77.6445 11.5293 77.3633 10.666C77.0859 9.80273 76.709 8.99219 76.2324 8.23438H77.2578C77.7461 8.98047 78.1348 9.77344 78.4238 10.6133C78.7168 11.4531 78.8633 12.293 78.8633 13.1328C78.8633 14.8047 78.3359 16.4707 77.2812 18.1309H76.2324Z" fill="#777777"/>
</svg>
