<svg width="377" height="200" viewBox="0 0 377 200" fill="none" xmlns="http://www.w3.org/2000/svg">
<path d="M6.01367 27.1797C5.36784 27.1797 4.74544 27.0703 4.14648 26.8516C3.55273 26.6276 3.02669 26.2943 2.56836 25.8516L3.2793 24.7422C3.65951 25.138 4.08659 25.4323 4.56055 25.625C5.03451 25.8177 5.51367 25.9141 5.99805 25.9141C6.72721 25.9141 7.31315 25.6823 7.75586 25.2188C8.19857 24.75 8.41992 24.1224 8.41992 23.3359C8.41992 22.6589 8.23242 22.0938 7.85742 21.6406C7.48763 21.1875 6.98242 20.9609 6.3418 20.9609C5.97201 20.9609 5.62044 21.0312 5.28711 21.1719C4.95898 21.3073 4.7168 21.4974 4.56055 21.7422L3.1543 21.6094L3.18555 15.625H9.28711V16.8984H4.55273L4.42773 20.4453C4.6569 20.1849 4.95638 19.9896 5.32617 19.8594C5.70117 19.724 6.09701 19.6562 6.51367 19.6562C7.52409 19.6562 8.34961 20.0078 8.99023 20.7109C9.63086 21.4089 9.95117 22.2943 9.95117 23.3672C9.95117 24.5286 9.57878 25.4557 8.83398 26.1484C8.0944 26.8359 7.1543 27.1797 6.01367 27.1797ZM19.6309 27.1719C18.9382 27.1719 18.3262 27.0677 17.7949 26.8594C17.2689 26.651 16.86 26.4323 16.5684 26.2031L16.9668 25.1328C17.2637 25.3516 17.6413 25.5495 18.0996 25.7266C18.5632 25.9036 19.0345 25.9922 19.5137 25.9922C20.5762 25.9922 21.1074 25.6016 21.1074 24.8203C21.1074 24.4922 20.9876 24.2474 20.748 24.0859C20.5085 23.9245 20.0423 23.7266 19.3496 23.4922L18.6621 23.2578C18.3965 23.1641 18.1699 23.0755 17.9824 22.9922C17.8001 22.9089 17.6152 22.8047 17.4277 22.6797C17.2402 22.5495 17.0892 22.4115 16.9746 22.2656C16.86 22.1146 16.7663 21.9349 16.6934 21.7266C16.6257 21.513 16.5918 21.2734 16.5918 21.0078C16.5918 20.6276 16.6699 20.2917 16.8262 20C16.9876 19.7031 17.2064 19.4714 17.4824 19.3047C17.7585 19.1328 18.0632 19.0052 18.3965 18.9219C18.7298 18.8333 19.0892 18.7891 19.4746 18.7891C20.5319 18.7891 21.4225 19.0208 22.1465 19.4844L21.748 20.5156C21.0449 20.1406 20.3418 19.9531 19.6387 19.9531C19.123 19.9531 18.7246 20.0417 18.4434 20.2188C18.1621 20.3958 18.0215 20.6458 18.0215 20.9688C18.0215 21.2604 18.1048 21.4766 18.2715 21.6172C18.4434 21.7526 18.7819 21.9115 19.2871 22.0938C19.7402 22.2448 20.0085 22.3359 20.0918 22.3672C20.4199 22.4818 20.6829 22.5807 20.8809 22.6641C21.0788 22.7474 21.2897 22.8594 21.5137 23C21.7428 23.1354 21.9173 23.2786 22.0371 23.4297C22.1621 23.5807 22.2637 23.7708 22.3418 24C22.4251 24.224 22.4668 24.4792 22.4668 24.7656C22.4668 25.1927 22.3861 25.5677 22.2246 25.8906C22.0632 26.2083 21.8444 26.4583 21.5684 26.6406C21.2923 26.8177 20.9928 26.9505 20.6699 27.0391C20.347 27.1276 20.0007 27.1719 19.6309 27.1719ZM28.7246 27H28.0605C26.9251 26.9896 26.1465 26.7865 25.7246 26.3906C25.3079 25.9948 25.0996 25.2734 25.0996 24.2266V19.9453H23.5605V18.9844H25.1309V16.9219L26.5371 16.5078V18.9844H28.709V19.9453H26.5371V24.3047C26.5371 24.5911 26.5553 24.8229 26.5918 25C26.6335 25.1771 26.696 25.3281 26.7793 25.4531C26.8626 25.5729 26.9954 25.6615 27.1777 25.7188C27.36 25.776 27.5658 25.8177 27.7949 25.8438C28.0241 25.8646 28.334 25.875 28.7246 25.875V27ZM34.3105 26C35.1074 26 35.7142 25.724 36.1309 25.1719C36.5527 24.6146 36.7637 23.8672 36.7637 22.9297C36.7637 22.0443 36.5501 21.3281 36.123 20.7812C35.696 20.2292 35.0866 19.9531 34.2949 19.9531C33.4616 19.9531 32.8262 20.2292 32.3887 20.7812C31.9564 21.3333 31.7402 22.0573 31.7402 22.9531C31.7402 23.8542 31.959 24.5885 32.3965 25.1562C32.834 25.7188 33.472 26 34.3105 26ZM34.1074 27.1719C33.5085 27.1719 32.9642 27.0599 32.4746 26.8359C31.9902 26.612 31.5892 26.3099 31.2715 25.9297C30.959 25.5443 30.7168 25.1016 30.5449 24.6016C30.3783 24.0964 30.2949 23.5599 30.2949 22.9922C30.2949 22.2109 30.446 21.5052 30.748 20.875C31.0553 20.2396 31.5007 19.7318 32.084 19.3516C32.6673 18.9714 33.3418 18.7812 34.1074 18.7812C34.6751 18.7812 35.1908 18.9193 35.6543 19.1953C36.123 19.4714 36.4772 19.8255 36.7168 20.2578V18.9844H38.1387V27H36.7012V25.6328C36.472 26.112 36.1309 26.4896 35.6777 26.7656C35.2246 27.0365 34.7012 27.1719 34.1074 27.1719ZM40.8574 27V20.9531C40.8574 20.776 40.847 20.5234 40.8262 20.1953C40.8105 19.8672 40.7949 19.5833 40.7793 19.3438L40.7559 18.9844H42.2793L42.2949 20.2344C42.7793 19.276 43.4928 18.7969 44.4355 18.7969C44.7324 18.7969 45.0033 18.8281 45.248 18.8906L45.2402 20.1641C44.9329 20.0807 44.6387 20.0391 44.3574 20.0391C43.7428 20.0391 43.248 20.2552 42.873 20.6875C42.498 21.1146 42.3105 21.7318 42.3105 22.5391V27H40.8574ZM3.68555 62.8828H7.16992V57.0625C6.83138 57.6562 6.47982 58.2604 6.11523 58.875C5.75065 59.4844 5.30013 60.2292 4.76367 61.1094C4.23242 61.9844 3.87305 62.5755 3.68555 62.8828ZM7.17773 67V63.9922H2.12305V62.9922L6.78711 55.625H8.61523V62.8828H10.3105V63.9922H8.60742V67H7.17773ZM19.6309 67.1719C18.9382 67.1719 18.3262 67.0677 17.7949 66.8594C17.2689 66.651 16.86 66.4323 16.5684 66.2031L16.9668 65.1328C17.2637 65.3516 17.6413 65.5495 18.0996 65.7266C18.5632 65.9036 19.0345 65.9922 19.5137 65.9922C20.5762 65.9922 21.1074 65.6016 21.1074 64.8203C21.1074 64.4922 20.9876 64.2474 20.748 64.0859C20.5085 63.9245 20.0423 63.7266 19.3496 63.4922L18.6621 63.2578C18.3965 63.1641 18.1699 63.0755 17.9824 62.9922C17.8001 62.9089 17.6152 62.8047 17.4277 62.6797C17.2402 62.5495 17.0892 62.4115 16.9746 62.2656C16.86 62.1146 16.7663 61.9349 16.6934 61.7266C16.6257 61.513 16.5918 61.2734 16.5918 61.0078C16.5918 60.6276 16.6699 60.2917 16.8262 60C16.9876 59.7031 17.2064 59.4714 17.4824 59.3047C17.7585 59.1328 18.0632 59.0052 18.3965 58.9219C18.7298 58.8333 19.0892 58.7891 19.4746 58.7891C20.5319 58.7891 21.4225 59.0208 22.1465 59.4844L21.748 60.5156C21.0449 60.1406 20.3418 59.9531 19.6387 59.9531C19.123 59.9531 18.7246 60.0417 18.4434 60.2188C18.1621 60.3958 18.0215 60.6458 18.0215 60.9688C18.0215 61.2604 18.1048 61.4766 18.2715 61.6172C18.4434 61.7526 18.7819 61.9115 19.2871 62.0938C19.7402 62.2448 20.0085 62.3359 20.0918 62.3672C20.4199 62.4818 20.6829 62.5807 20.8809 62.6641C21.0788 62.7474 21.2897 62.8594 21.5137 63C21.7428 63.1354 21.9173 63.2786 22.0371 63.4297C22.1621 63.5807 22.2637 63.7708 22.3418 64C22.4251 64.224 22.4668 64.4792 22.4668 64.7656C22.4668 65.1927 22.3861 65.5677 22.2246 65.8906C22.0632 66.2083 21.8444 66.4583 21.5684 66.6406C21.2923 66.8177 20.9928 66.9505 20.6699 67.0391C20.347 67.1276 20.0007 67.1719 19.6309 67.1719ZM28.7246 67H28.0605C26.9251 66.9896 26.1465 66.7865 25.7246 66.3906C25.3079 65.9948 25.0996 65.2734 25.0996 64.2266V59.9453H23.5605V58.9844H25.1309V56.9219L26.5371 56.5078V58.9844H28.709V59.9453H26.5371V64.3047C26.5371 64.5911 26.5553 64.8229 26.5918 65C26.6335 65.1771 26.696 65.3281 26.7793 65.4531C26.8626 65.5729 26.9954 65.6615 27.1777 65.7188C27.36 65.776 27.5658 65.8177 27.7949 65.8438C28.0241 65.8646 28.334 65.875 28.7246 65.875V67ZM34.3105 66C35.1074 66 35.7142 65.724 36.1309 65.1719C36.5527 64.6146 36.7637 63.8672 36.7637 62.9297C36.7637 62.0443 36.5501 61.3281 36.123 60.7812C35.696 60.2292 35.0866 59.9531 34.2949 59.9531C33.4616 59.9531 32.8262 60.2292 32.3887 60.7812C31.9564 61.3333 31.7402 62.0573 31.7402 62.9531C31.7402 63.8542 31.959 64.5885 32.3965 65.1562C32.834 65.7188 33.472 66 34.3105 66ZM34.1074 67.1719C33.5085 67.1719 32.9642 67.0599 32.4746 66.8359C31.9902 66.612 31.5892 66.3099 31.2715 65.9297C30.959 65.5443 30.7168 65.1016 30.5449 64.6016C30.3783 64.0964 30.2949 63.5599 30.2949 62.9922C30.2949 62.2109 30.446 61.5052 30.748 60.875C31.0553 60.2396 31.5007 59.7318 32.084 59.3516C32.6673 58.9714 33.3418 58.7812 34.1074 58.7812C34.6751 58.7812 35.1908 58.9193 35.6543 59.1953C36.123 59.4714 36.4772 59.8255 36.7168 60.2578V58.9844H38.1387V67H36.7012V65.6328C36.472 66.112 36.1309 66.4896 35.6777 66.7656C35.2246 67.0365 34.7012 67.1719 34.1074 67.1719ZM40.8574 67V60.9531C40.8574 60.776 40.847 60.5234 40.8262 60.1953C40.8105 59.8672 40.7949 59.5833 40.7793 59.3438L40.7559 58.9844H42.2793L42.2949 60.2344C42.7793 59.276 43.4928 58.7969 44.4355 58.7969C44.7324 58.7969 45.0033 58.8281 45.248 58.8906L45.2402 60.1641C44.9329 60.0807 44.6387 60.0391 44.3574 60.0391C43.7428 60.0391 43.248 60.2552 42.873 60.6875C42.498 61.1146 42.3105 61.7318 42.3105 62.5391V67H40.8574ZM5.84961 107.172C5.44336 107.172 5.04753 107.135 4.66211 107.062C4.27669 106.995 3.94336 106.909 3.66211 106.805C3.38607 106.695 3.17773 106.609 3.03711 106.547C2.90169 106.479 2.78971 106.419 2.70117 106.367L3.11523 105.227C4.05273 105.685 4.91992 105.914 5.7168 105.914C6.48242 105.914 7.08919 105.724 7.53711 105.344C7.99023 104.964 8.2168 104.448 8.2168 103.797C8.2168 103.443 8.14909 103.13 8.01367 102.859C7.87826 102.583 7.68034 102.359 7.41992 102.188C7.15951 102.016 6.84701 101.885 6.48242 101.797C6.11784 101.708 5.70378 101.664 5.24023 101.664C5.2194 101.664 5.19857 101.664 5.17773 101.664L4.57617 101.672L4.56055 100.398H5.14648C6.09961 100.398 6.80273 100.242 7.25586 99.9297C7.71419 99.612 7.94336 99.0859 7.94336 98.3516C7.94336 97.8255 7.72461 97.4167 7.28711 97.125C6.85482 96.8281 6.32096 96.6797 5.68555 96.6797C4.63867 96.6797 3.75586 97.0234 3.03711 97.7109L2.34961 96.7109C2.78711 96.2734 3.28711 95.9505 3.84961 95.7422C4.41211 95.5286 5.08138 95.4219 5.85742 95.4219C6.49284 95.4219 7.07617 95.5312 7.60742 95.75C8.13867 95.9635 8.57096 96.2969 8.9043 96.75C9.24284 97.1979 9.41211 97.7266 9.41211 98.3359C9.41211 98.987 9.22982 99.5599 8.86523 100.055C8.50065 100.544 7.97982 100.862 7.30273 101.008C8.04753 101.148 8.63086 101.477 9.05273 101.992C9.47982 102.503 9.69336 103.122 9.69336 103.852C9.69336 104.523 9.52148 105.115 9.17773 105.625C8.83919 106.135 8.38086 106.521 7.80273 106.781C7.22461 107.042 6.57357 107.172 5.84961 107.172ZM19.6309 107.172C18.9382 107.172 18.3262 107.068 17.7949 106.859C17.2689 106.651 16.86 106.432 16.5684 106.203L16.9668 105.133C17.2637 105.352 17.6413 105.549 18.0996 105.727C18.5632 105.904 19.0345 105.992 19.5137 105.992C20.5762 105.992 21.1074 105.602 21.1074 104.82C21.1074 104.492 20.9876 104.247 20.748 104.086C20.5085 103.924 20.0423 103.727 19.3496 103.492L18.6621 103.258C18.3965 103.164 18.1699 103.076 17.9824 102.992C17.8001 102.909 17.6152 102.805 17.4277 102.68C17.2402 102.549 17.0892 102.411 16.9746 102.266C16.86 102.115 16.7663 101.935 16.6934 101.727C16.6257 101.513 16.5918 101.273 16.5918 101.008C16.5918 100.628 16.6699 100.292 16.8262 100C16.9876 99.7031 17.2064 99.4714 17.4824 99.3047C17.7585 99.1328 18.0632 99.0052 18.3965 98.9219C18.7298 98.8333 19.0892 98.7891 19.4746 98.7891C20.5319 98.7891 21.4225 99.0208 22.1465 99.4844L21.748 100.516C21.0449 100.141 20.3418 99.9531 19.6387 99.9531C19.123 99.9531 18.7246 100.042 18.4434 100.219C18.1621 100.396 18.0215 100.646 18.0215 100.969C18.0215 101.26 18.1048 101.477 18.2715 101.617C18.4434 101.753 18.7819 101.911 19.2871 102.094C19.7402 102.245 20.0085 102.336 20.0918 102.367C20.4199 102.482 20.6829 102.581 20.8809 102.664C21.0788 102.747 21.2897 102.859 21.5137 103C21.7428 103.135 21.9173 103.279 22.0371 103.43C22.1621 103.581 22.2637 103.771 22.3418 104C22.4251 104.224 22.4668 104.479 22.4668 104.766C22.4668 105.193 22.3861 105.568 22.2246 105.891C22.0632 106.208 21.8444 106.458 21.5684 106.641C21.2923 106.818 20.9928 106.951 20.6699 107.039C20.347 107.128 20.0007 107.172 19.6309 107.172ZM28.7246 107H28.0605C26.9251 106.99 26.1465 106.786 25.7246 106.391C25.3079 105.995 25.0996 105.273 25.0996 104.227V99.9453H23.5605V98.9844H25.1309V96.9219L26.5371 96.5078V98.9844H28.709V99.9453H26.5371V104.305C26.5371 104.591 26.5553 104.823 26.5918 105C26.6335 105.177 26.696 105.328 26.7793 105.453C26.8626 105.573 26.9954 105.661 27.1777 105.719C27.36 105.776 27.5658 105.818 27.7949 105.844C28.0241 105.865 28.334 105.875 28.7246 105.875V107ZM34.3105 106C35.1074 106 35.7142 105.724 36.1309 105.172C36.5527 104.615 36.7637 103.867 36.7637 102.93C36.7637 102.044 36.5501 101.328 36.123 100.781C35.696 100.229 35.0866 99.9531 34.2949 99.9531C33.4616 99.9531 32.8262 100.229 32.3887 100.781C31.9564 101.333 31.7402 102.057 31.7402 102.953C31.7402 103.854 31.959 104.589 32.3965 105.156C32.834 105.719 33.472 106 34.3105 106ZM34.1074 107.172C33.5085 107.172 32.9642 107.06 32.4746 106.836C31.9902 106.612 31.5892 106.31 31.2715 105.93C30.959 105.544 30.7168 105.102 30.5449 104.602C30.3783 104.096 30.2949 103.56 30.2949 102.992C30.2949 102.211 30.446 101.505 30.748 100.875C31.0553 100.24 31.5007 99.7318 32.084 99.3516C32.6673 98.9714 33.3418 98.7812 34.1074 98.7812C34.6751 98.7812 35.1908 98.9193 35.6543 99.1953C36.123 99.4714 36.4772 99.8255 36.7168 100.258V98.9844H38.1387V107H36.7012V105.633C36.472 106.112 36.1309 106.49 35.6777 106.766C35.2246 107.036 34.7012 107.172 34.1074 107.172ZM40.8574 107V100.953C40.8574 100.776 40.847 100.523 40.8262 100.195C40.8105 99.8672 40.7949 99.5833 40.7793 99.3438L40.7559 98.9844H42.2793L42.2949 100.234C42.7793 99.276 43.4928 98.7969 44.4355 98.7969C44.7324 98.7969 45.0033 98.8281 45.248 98.8906L45.2402 100.164C44.9329 100.081 44.6387 100.039 44.3574 100.039C43.7428 100.039 43.248 100.255 42.873 100.688C42.498 101.115 42.3105 101.732 42.3105 102.539V107H40.8574ZM5.93555 135.422C6.35742 135.422 6.75326 135.477 7.12305 135.586C7.49284 135.69 7.81836 135.844 8.09961 136.047C8.38607 136.25 8.63086 136.492 8.83398 136.773C9.03711 137.049 9.19076 137.362 9.29492 137.711C9.39909 138.06 9.45117 138.432 9.45117 138.828C9.45117 139.214 9.40169 139.586 9.30273 139.945C9.20378 140.299 9.05013 140.654 8.8418 141.008C8.63867 141.357 8.40951 141.693 8.1543 142.016C7.89909 142.333 7.58398 142.69 7.20898 143.086L4.67773 145.766H9.4043V147H2.88867V145.828L6.34961 142.156C6.94336 141.526 7.36523 140.964 7.61523 140.469C7.87044 139.974 7.99805 139.466 7.99805 138.945C7.99805 138.253 7.81055 137.703 7.43555 137.297C7.06576 136.891 6.53711 136.688 5.84961 136.688C5.62565 136.688 5.39388 136.711 5.1543 136.758C4.91992 136.799 4.71159 136.852 4.5293 136.914C4.34701 136.971 4.15951 137.044 3.9668 137.133C3.77409 137.216 3.62305 137.289 3.51367 137.352C3.40951 137.409 3.30013 137.471 3.18555 137.539C3.07617 137.607 3.01888 137.641 3.01367 137.641L2.5293 136.477C2.53451 136.477 2.58398 136.448 2.67773 136.391C2.77148 136.328 2.86523 136.271 2.95898 136.219C3.05794 136.167 3.18815 136.102 3.34961 136.023C3.51107 135.94 3.68294 135.867 3.86523 135.805C4.04753 135.737 4.24544 135.674 4.45898 135.617C4.67773 135.555 4.91211 135.508 5.16211 135.477C5.41732 135.44 5.67513 135.422 5.93555 135.422ZM19.6309 147.172C18.9382 147.172 18.3262 147.068 17.7949 146.859C17.2689 146.651 16.86 146.432 16.5684 146.203L16.9668 145.133C17.2637 145.352 17.6413 145.549 18.0996 145.727C18.5632 145.904 19.0345 145.992 19.5137 145.992C20.5762 145.992 21.1074 145.602 21.1074 144.82C21.1074 144.492 20.9876 144.247 20.748 144.086C20.5085 143.924 20.0423 143.727 19.3496 143.492L18.6621 143.258C18.3965 143.164 18.1699 143.076 17.9824 142.992C17.8001 142.909 17.6152 142.805 17.4277 142.68C17.2402 142.549 17.0892 142.411 16.9746 142.266C16.86 142.115 16.7663 141.935 16.6934 141.727C16.6257 141.513 16.5918 141.273 16.5918 141.008C16.5918 140.628 16.6699 140.292 16.8262 140C16.9876 139.703 17.2064 139.471 17.4824 139.305C17.7585 139.133 18.0632 139.005 18.3965 138.922C18.7298 138.833 19.0892 138.789 19.4746 138.789C20.5319 138.789 21.4225 139.021 22.1465 139.484L21.748 140.516C21.0449 140.141 20.3418 139.953 19.6387 139.953C19.123 139.953 18.7246 140.042 18.4434 140.219C18.1621 140.396 18.0215 140.646 18.0215 140.969C18.0215 141.26 18.1048 141.477 18.2715 141.617C18.4434 141.753 18.7819 141.911 19.2871 142.094C19.7402 142.245 20.0085 142.336 20.0918 142.367C20.4199 142.482 20.6829 142.581 20.8809 142.664C21.0788 142.747 21.2897 142.859 21.5137 143C21.7428 143.135 21.9173 143.279 22.0371 143.43C22.1621 143.581 22.2637 143.771 22.3418 144C22.4251 144.224 22.4668 144.479 22.4668 144.766C22.4668 145.193 22.3861 145.568 22.2246 145.891C22.0632 146.208 21.8444 146.458 21.5684 146.641C21.2923 146.818 20.9928 146.951 20.6699 147.039C20.347 147.128 20.0007 147.172 19.6309 147.172ZM28.7246 147H28.0605C26.9251 146.99 26.1465 146.786 25.7246 146.391C25.3079 145.995 25.0996 145.273 25.0996 144.227V139.945H23.5605V138.984H25.1309V136.922L26.5371 136.508V138.984H28.709V139.945H26.5371V144.305C26.5371 144.591 26.5553 144.823 26.5918 145C26.6335 145.177 26.696 145.328 26.7793 145.453C26.8626 145.573 26.9954 145.661 27.1777 145.719C27.36 145.776 27.5658 145.818 27.7949 145.844C28.0241 145.865 28.334 145.875 28.7246 145.875V147ZM34.3105 146C35.1074 146 35.7142 145.724 36.1309 145.172C36.5527 144.615 36.7637 143.867 36.7637 142.93C36.7637 142.044 36.5501 141.328 36.123 140.781C35.696 140.229 35.0866 139.953 34.2949 139.953C33.4616 139.953 32.8262 140.229 32.3887 140.781C31.9564 141.333 31.7402 142.057 31.7402 142.953C31.7402 143.854 31.959 144.589 32.3965 145.156C32.834 145.719 33.472 146 34.3105 146ZM34.1074 147.172C33.5085 147.172 32.9642 147.06 32.4746 146.836C31.9902 146.612 31.5892 146.31 31.2715 145.93C30.959 145.544 30.7168 145.102 30.5449 144.602C30.3783 144.096 30.2949 143.56 30.2949 142.992C30.2949 142.211 30.446 141.505 30.748 140.875C31.0553 140.24 31.5007 139.732 32.084 139.352C32.6673 138.971 33.3418 138.781 34.1074 138.781C34.6751 138.781 35.1908 138.919 35.6543 139.195C36.123 139.471 36.4772 139.826 36.7168 140.258V138.984H38.1387V147H36.7012V145.633C36.472 146.112 36.1309 146.49 35.6777 146.766C35.2246 147.036 34.7012 147.172 34.1074 147.172ZM40.8574 147V140.953C40.8574 140.776 40.847 140.523 40.8262 140.195C40.8105 139.867 40.7949 139.583 40.7793 139.344L40.7559 138.984H42.2793L42.2949 140.234C42.7793 139.276 43.4928 138.797 44.4355 138.797C44.7324 138.797 45.0033 138.828 45.248 138.891L45.2402 140.164C44.9329 140.081 44.6387 140.039 44.3574 140.039C43.7428 140.039 43.248 140.255 42.873 140.688C42.498 141.115 42.3105 141.732 42.3105 142.539V147H40.8574ZM3.50586 187V185.828H5.70117V177.234C5.18034 177.521 4.4069 177.854 3.38086 178.234V176.883C3.76628 176.747 4.21159 176.56 4.7168 176.32C5.22721 176.076 5.66471 175.844 6.0293 175.625H7.20117V185.828H9.26367V187H3.50586ZM19.6309 187.172C18.9382 187.172 18.3262 187.068 17.7949 186.859C17.2689 186.651 16.86 186.432 16.5684 186.203L16.9668 185.133C17.2637 185.352 17.6413 185.549 18.0996 185.727C18.5632 185.904 19.0345 185.992 19.5137 185.992C20.5762 185.992 21.1074 185.602 21.1074 184.82C21.1074 184.492 20.9876 184.247 20.748 184.086C20.5085 183.924 20.0423 183.727 19.3496 183.492L18.6621 183.258C18.3965 183.164 18.1699 183.076 17.9824 182.992C17.8001 182.909 17.6152 182.805 17.4277 182.68C17.2402 182.549 17.0892 182.411 16.9746 182.266C16.86 182.115 16.7663 181.935 16.6934 181.727C16.6257 181.513 16.5918 181.273 16.5918 181.008C16.5918 180.628 16.6699 180.292 16.8262 180C16.9876 179.703 17.2064 179.471 17.4824 179.305C17.7585 179.133 18.0632 179.005 18.3965 178.922C18.7298 178.833 19.0892 178.789 19.4746 178.789C20.5319 178.789 21.4225 179.021 22.1465 179.484L21.748 180.516C21.0449 180.141 20.3418 179.953 19.6387 179.953C19.123 179.953 18.7246 180.042 18.4434 180.219C18.1621 180.396 18.0215 180.646 18.0215 180.969C18.0215 181.26 18.1048 181.477 18.2715 181.617C18.4434 181.753 18.7819 181.911 19.2871 182.094C19.7402 182.245 20.0085 182.336 20.0918 182.367C20.4199 182.482 20.6829 182.581 20.8809 182.664C21.0788 182.747 21.2897 182.859 21.5137 183C21.7428 183.135 21.9173 183.279 22.0371 183.43C22.1621 183.581 22.2637 183.771 22.3418 184C22.4251 184.224 22.4668 184.479 22.4668 184.766C22.4668 185.193 22.3861 185.568 22.2246 185.891C22.0632 186.208 21.8444 186.458 21.5684 186.641C21.2923 186.818 20.9928 186.951 20.6699 187.039C20.347 187.128 20.0007 187.172 19.6309 187.172ZM28.7246 187H28.0605C26.9251 186.99 26.1465 186.786 25.7246 186.391C25.3079 185.995 25.0996 185.273 25.0996 184.227V179.945H23.5605V178.984H25.1309V176.922L26.5371 176.508V178.984H28.709V179.945H26.5371V184.305C26.5371 184.591 26.5553 184.823 26.5918 185C26.6335 185.177 26.696 185.328 26.7793 185.453C26.8626 185.573 26.9954 185.661 27.1777 185.719C27.36 185.776 27.5658 185.818 27.7949 185.844C28.0241 185.865 28.334 185.875 28.7246 185.875V187ZM34.3105 186C35.1074 186 35.7142 185.724 36.1309 185.172C36.5527 184.615 36.7637 183.867 36.7637 182.93C36.7637 182.044 36.5501 181.328 36.123 180.781C35.696 180.229 35.0866 179.953 34.2949 179.953C33.4616 179.953 32.8262 180.229 32.3887 180.781C31.9564 181.333 31.7402 182.057 31.7402 182.953C31.7402 183.854 31.959 184.589 32.3965 185.156C32.834 185.719 33.472 186 34.3105 186ZM34.1074 187.172C33.5085 187.172 32.9642 187.06 32.4746 186.836C31.9902 186.612 31.5892 186.31 31.2715 185.93C30.959 185.544 30.7168 185.102 30.5449 184.602C30.3783 184.096 30.2949 183.56 30.2949 182.992C30.2949 182.211 30.446 181.505 30.748 180.875C31.0553 180.24 31.5007 179.732 32.084 179.352C32.6673 178.971 33.3418 178.781 34.1074 178.781C34.6751 178.781 35.1908 178.919 35.6543 179.195C36.123 179.471 36.4772 179.826 36.7168 180.258V178.984H38.1387V187H36.7012V185.633C36.472 186.112 36.1309 186.49 35.6777 186.766C35.2246 187.036 34.7012 187.172 34.1074 187.172ZM40.8574 187V180.953C40.8574 180.776 40.847 180.523 40.8262 180.195C40.8105 179.867 40.7949 179.583 40.7793 179.344L40.7559 178.984H42.2793L42.2949 180.234C42.7793 179.276 43.4928 178.797 44.4355 178.797C44.7324 178.797 45.0033 178.828 45.248 178.891L45.2402 180.164C44.9329 180.081 44.6387 180.039 44.3574 180.039C43.7428 180.039 43.248 180.255 42.873 180.688C42.498 181.115 42.3105 181.732 42.3105 182.539V187H40.8574Z" fill="#333333"/>
<path d="M347.416 20.4141C348.067 20.2734 348.572 20.0208 348.932 19.6562C349.296 19.2865 349.479 18.8307 349.479 18.2891C349.479 17.763 349.281 17.349 348.885 17.0469C348.489 16.7396 348.002 16.5859 347.424 16.5859C346.84 16.5859 346.351 16.737 345.955 17.0391C345.559 17.3411 345.361 17.763 345.361 18.3047C345.361 18.8411 345.541 19.2943 345.9 19.6641C346.265 20.0286 346.77 20.2786 347.416 20.4141ZM347.416 25.9766C348.104 25.9766 348.656 25.8073 349.072 25.4688C349.494 25.125 349.705 24.6354 349.705 24C349.705 23.4271 349.494 22.9323 349.072 22.5156C348.65 22.099 348.104 21.8177 347.432 21.6719C346.749 21.8177 346.197 22.0964 345.775 22.5078C345.354 22.9193 345.143 23.4219 345.143 24.0156C345.143 24.6354 345.351 25.1172 345.768 25.4609C346.189 25.8047 346.739 25.9766 347.416 25.9766ZM347.424 27.1719C346.742 27.1719 346.119 27.0547 345.557 26.8203C344.999 26.5807 344.544 26.2188 344.189 25.7344C343.84 25.25 343.666 24.6823 343.666 24.0312C343.666 23.3333 343.869 22.7266 344.275 22.2109C344.687 21.6901 345.26 21.2995 345.994 21.0391C345.354 20.7891 344.848 20.4349 344.479 19.9766C344.109 19.513 343.924 18.9635 343.924 18.3281C343.924 17.4375 344.252 16.7318 344.908 16.2109C345.57 15.6849 346.406 15.4219 347.416 15.4219C348.442 15.4219 349.283 15.6849 349.939 16.2109C350.596 16.737 350.924 17.4505 350.924 18.3516C350.924 18.9922 350.742 19.5417 350.377 20C350.012 20.4583 349.507 20.8047 348.861 21.0391C349.58 21.2943 350.145 21.6875 350.557 22.2188C350.968 22.75 351.174 23.362 351.174 24.0547C351.174 24.7005 350.997 25.2656 350.643 25.75C350.288 26.2292 349.83 26.5859 349.268 26.8203C348.71 27.0547 348.096 27.1719 347.424 27.1719ZM357.049 27.1719C356.215 27.1719 355.505 26.9271 354.916 26.4375C354.333 25.9479 353.895 25.2656 353.604 24.3906C353.317 23.5104 353.174 22.474 353.174 21.2812C353.174 19.4115 353.505 17.9688 354.166 16.9531C354.827 15.9323 355.791 15.4219 357.057 15.4219C358.307 15.4219 359.252 15.9349 359.893 16.9609C360.533 17.987 360.854 19.4271 360.854 21.2812C360.854 23.1094 360.531 24.5495 359.885 25.6016C359.239 26.6484 358.294 27.1719 357.049 27.1719ZM357.072 25.9141C358.562 25.9141 359.307 24.3698 359.307 21.2812C359.307 20.599 359.265 19.987 359.182 19.4453C359.104 18.9036 358.979 18.4219 358.807 18C358.635 17.5781 358.4 17.2526 358.104 17.0234C357.812 16.7943 357.465 16.6797 357.064 16.6797C356.648 16.6797 356.286 16.7943 355.979 17.0234C355.671 17.2526 355.426 17.5781 355.244 18C355.062 18.4167 354.926 18.8984 354.838 19.4453C354.749 19.9922 354.705 20.6042 354.705 21.2812C354.705 22.2292 354.781 23.0391 354.932 23.7109C355.088 24.3828 355.346 24.9193 355.705 25.3203C356.064 25.7161 356.52 25.9141 357.072 25.9141ZM372.877 27.1484C372.028 27.1484 371.364 26.8698 370.885 26.3125C370.411 25.75 370.174 25.013 370.174 24.1016C370.174 23.1901 370.416 22.4505 370.9 21.8828C371.385 21.3099 372.051 21.0234 372.9 21.0234C373.744 21.0234 374.4 21.3073 374.869 21.875C375.343 22.4375 375.58 23.1771 375.58 24.0938C375.58 25.0052 375.34 25.7422 374.861 26.3047C374.382 26.8672 373.721 27.1484 372.877 27.1484ZM372.893 26.1875C373.856 26.1875 374.338 25.4896 374.338 24.0938C374.338 22.6823 373.859 21.9766 372.9 21.9766C371.916 21.9766 371.424 22.6849 371.424 24.1016C371.424 25.4922 371.913 26.1875 372.893 26.1875ZM365.268 27L371.869 15.625H373.088L366.471 27H365.268ZM365.385 21.5938C364.525 21.5938 363.859 21.3229 363.385 20.7812C362.916 20.2396 362.682 19.4974 362.682 18.5547C362.682 17.6172 362.921 16.8698 363.4 16.3125C363.88 15.7552 364.546 15.4766 365.4 15.4766C366.255 15.4766 366.916 15.7526 367.385 16.3047C367.854 16.8568 368.088 17.6042 368.088 18.5469C368.088 19.4844 367.848 20.2266 367.369 20.7734C366.895 21.3203 366.234 21.5938 365.385 21.5938ZM365.393 20.6406C366.356 20.6406 366.838 19.9401 366.838 18.5391C366.838 17.1328 366.359 16.4297 365.4 16.4297C364.421 16.4297 363.932 17.1354 363.932 18.5469C363.932 19.9427 364.419 20.6406 365.393 20.6406ZM356.869 61.5938C357.577 61.5938 358.148 61.3828 358.58 60.9609C359.018 60.5339 359.236 59.9844 359.236 59.3125C359.236 58.9688 359.189 58.6432 359.096 58.3359C359.007 58.0234 358.872 57.7422 358.689 57.4922C358.512 57.2422 358.275 57.0443 357.979 56.8984C357.682 56.7526 357.343 56.6797 356.963 56.6797C356.275 56.6797 355.734 56.9115 355.338 57.375C354.942 57.8333 354.744 58.4271 354.744 59.1562C354.744 59.8854 354.919 60.474 355.268 60.9219C355.622 61.3698 356.156 61.5938 356.869 61.5938ZM356.572 67.1719C355.661 67.1719 354.744 66.9297 353.822 66.4453L354.338 65.2578C355.041 65.6953 355.752 65.9141 356.471 65.9141C357.372 65.9141 358.067 65.5521 358.557 64.8281C359.051 64.1042 359.301 63.1328 359.307 61.9141C359.312 61.888 359.314 61.7578 359.314 61.5234C359.075 61.9401 358.729 62.263 358.275 62.4922C357.827 62.7161 357.307 62.8281 356.713 62.8281C355.661 62.8281 354.817 62.4948 354.182 61.8281C353.546 61.1562 353.229 60.276 353.229 59.1875C353.229 58.099 353.567 57.2005 354.244 56.4922C354.921 55.7786 355.825 55.4219 356.955 55.4219C358.226 55.4219 359.184 55.8984 359.83 56.8516C360.476 57.7995 360.799 59.1719 360.799 60.9688C360.799 62.9219 360.424 64.4453 359.674 65.5391C358.929 66.6276 357.895 67.1719 356.572 67.1719ZM372.877 67.1484C372.028 67.1484 371.364 66.8698 370.885 66.3125C370.411 65.75 370.174 65.013 370.174 64.1016C370.174 63.1901 370.416 62.4505 370.9 61.8828C371.385 61.3099 372.051 61.0234 372.9 61.0234C373.744 61.0234 374.4 61.3073 374.869 61.875C375.343 62.4375 375.58 63.1771 375.58 64.0938C375.58 65.0052 375.34 65.7422 374.861 66.3047C374.382 66.8672 373.721 67.1484 372.877 67.1484ZM372.893 66.1875C373.856 66.1875 374.338 65.4896 374.338 64.0938C374.338 62.6823 373.859 61.9766 372.9 61.9766C371.916 61.9766 371.424 62.6849 371.424 64.1016C371.424 65.4922 371.913 66.1875 372.893 66.1875ZM365.268 67L371.869 55.625H373.088L366.471 67H365.268ZM365.385 61.5938C364.525 61.5938 363.859 61.3229 363.385 60.7812C362.916 60.2396 362.682 59.4974 362.682 58.5547C362.682 57.6172 362.921 56.8698 363.4 56.3125C363.88 55.7552 364.546 55.4766 365.4 55.4766C366.255 55.4766 366.916 55.7526 367.385 56.3047C367.854 56.8568 368.088 57.6042 368.088 58.5469C368.088 59.4844 367.848 60.2266 367.369 60.7734C366.895 61.3203 366.234 61.5938 365.385 61.5938ZM365.393 60.6406C366.356 60.6406 366.838 59.9401 366.838 58.5391C366.838 57.1328 366.359 56.4297 365.4 56.4297C364.421 56.4297 363.932 57.1354 363.932 58.5469C363.932 59.9427 364.419 60.6406 365.393 60.6406ZM354.588 102.883H358.072V97.0625C357.734 97.6562 357.382 98.2604 357.018 98.875C356.653 99.4844 356.202 100.229 355.666 101.109C355.135 101.984 354.775 102.576 354.588 102.883ZM358.08 107V103.992H353.025V102.992L357.689 95.625H359.518V102.883H361.213V103.992H359.51V107H358.08ZM372.877 107.148C372.028 107.148 371.364 106.87 370.885 106.312C370.411 105.75 370.174 105.013 370.174 104.102C370.174 103.19 370.416 102.451 370.9 101.883C371.385 101.31 372.051 101.023 372.9 101.023C373.744 101.023 374.4 101.307 374.869 101.875C375.343 102.438 375.58 103.177 375.58 104.094C375.58 105.005 375.34 105.742 374.861 106.305C374.382 106.867 373.721 107.148 372.877 107.148ZM372.893 106.188C373.856 106.188 374.338 105.49 374.338 104.094C374.338 102.682 373.859 101.977 372.9 101.977C371.916 101.977 371.424 102.685 371.424 104.102C371.424 105.492 371.913 106.188 372.893 106.188ZM365.268 107L371.869 95.625H373.088L366.471 107H365.268ZM365.385 101.594C364.525 101.594 363.859 101.323 363.385 100.781C362.916 100.24 362.682 99.4974 362.682 98.5547C362.682 97.6172 362.921 96.8698 363.4 96.3125C363.88 95.7552 364.546 95.4766 365.4 95.4766C366.255 95.4766 366.916 95.7526 367.385 96.3047C367.854 96.8568 368.088 97.6042 368.088 98.5469C368.088 99.4844 367.848 100.227 367.369 100.773C366.895 101.32 366.234 101.594 365.385 101.594ZM365.393 100.641C366.356 100.641 366.838 99.9401 366.838 98.5391C366.838 97.1328 366.359 96.4297 365.4 96.4297C364.421 96.4297 363.932 97.1354 363.932 98.5469C363.932 99.9427 364.419 100.641 365.393 100.641ZM356.838 135.422C357.26 135.422 357.656 135.477 358.025 135.586C358.395 135.69 358.721 135.844 359.002 136.047C359.288 136.25 359.533 136.492 359.736 136.773C359.939 137.049 360.093 137.362 360.197 137.711C360.301 138.06 360.354 138.432 360.354 138.828C360.354 139.214 360.304 139.586 360.205 139.945C360.106 140.299 359.952 140.654 359.744 141.008C359.541 141.357 359.312 141.693 359.057 142.016C358.801 142.333 358.486 142.69 358.111 143.086L355.58 145.766H360.307V147H353.791V145.828L357.252 142.156C357.846 141.526 358.268 140.964 358.518 140.469C358.773 139.974 358.9 139.466 358.9 138.945C358.9 138.253 358.713 137.703 358.338 137.297C357.968 136.891 357.439 136.688 356.752 136.688C356.528 136.688 356.296 136.711 356.057 136.758C355.822 136.799 355.614 136.852 355.432 136.914C355.249 136.971 355.062 137.044 354.869 137.133C354.676 137.216 354.525 137.289 354.416 137.352C354.312 137.409 354.202 137.471 354.088 137.539C353.979 137.607 353.921 137.641 353.916 137.641L353.432 136.477C353.437 136.477 353.486 136.448 353.58 136.391C353.674 136.328 353.768 136.271 353.861 136.219C353.96 136.167 354.09 136.102 354.252 136.023C354.413 135.94 354.585 135.867 354.768 135.805C354.95 135.737 355.148 135.674 355.361 135.617C355.58 135.555 355.814 135.508 356.064 135.477C356.32 135.44 356.577 135.422 356.838 135.422ZM372.877 147.148C372.028 147.148 371.364 146.87 370.885 146.312C370.411 145.75 370.174 145.013 370.174 144.102C370.174 143.19 370.416 142.451 370.9 141.883C371.385 141.31 372.051 141.023 372.9 141.023C373.744 141.023 374.4 141.307 374.869 141.875C375.343 142.438 375.58 143.177 375.58 144.094C375.58 145.005 375.34 145.742 374.861 146.305C374.382 146.867 373.721 147.148 372.877 147.148ZM372.893 146.188C373.856 146.188 374.338 145.49 374.338 144.094C374.338 142.682 373.859 141.977 372.9 141.977C371.916 141.977 371.424 142.685 371.424 144.102C371.424 145.492 371.913 146.188 372.893 146.188ZM365.268 147L371.869 135.625H373.088L366.471 147H365.268ZM365.385 141.594C364.525 141.594 363.859 141.323 363.385 140.781C362.916 140.24 362.682 139.497 362.682 138.555C362.682 137.617 362.921 136.87 363.4 136.312C363.88 135.755 364.546 135.477 365.4 135.477C366.255 135.477 366.916 135.753 367.385 136.305C367.854 136.857 368.088 137.604 368.088 138.547C368.088 139.484 367.848 140.227 367.369 140.773C366.895 141.32 366.234 141.594 365.385 141.594ZM365.393 140.641C366.356 140.641 366.838 139.94 366.838 138.539C366.838 137.133 366.359 136.43 365.4 136.43C364.421 136.43 363.932 137.135 363.932 138.547C363.932 139.943 364.419 140.641 365.393 140.641ZM354.408 187V185.828H356.604V177.234C356.083 177.521 355.309 177.854 354.283 178.234V176.883C354.669 176.747 355.114 176.56 355.619 176.32C356.13 176.076 356.567 175.844 356.932 175.625H358.104V185.828H360.166V187H354.408ZM372.877 187.148C372.028 187.148 371.364 186.87 370.885 186.312C370.411 185.75 370.174 185.013 370.174 184.102C370.174 183.19 370.416 182.451 370.9 181.883C371.385 181.31 372.051 181.023 372.9 181.023C373.744 181.023 374.4 181.307 374.869 181.875C375.343 182.438 375.58 183.177 375.58 184.094C375.58 185.005 375.34 185.742 374.861 186.305C374.382 186.867 373.721 187.148 372.877 187.148ZM372.893 186.188C373.856 186.188 374.338 185.49 374.338 184.094C374.338 182.682 373.859 181.977 372.9 181.977C371.916 181.977 371.424 182.685 371.424 184.102C371.424 185.492 371.913 186.188 372.893 186.188ZM365.268 187L371.869 175.625H373.088L366.471 187H365.268ZM365.385 181.594C364.525 181.594 363.859 181.323 363.385 180.781C362.916 180.24 362.682 179.497 362.682 178.555C362.682 177.617 362.921 176.87 363.4 176.312C363.88 175.755 364.546 175.477 365.4 175.477C366.255 175.477 366.916 175.753 367.385 176.305C367.854 176.857 368.088 177.604 368.088 178.547C368.088 179.484 367.848 180.227 367.369 180.773C366.895 181.32 366.234 181.594 365.385 181.594ZM365.393 180.641C366.356 180.641 366.838 179.94 366.838 178.539C366.838 177.133 366.359 176.43 365.4 176.43C364.421 176.43 363.932 177.135 363.932 178.547C363.932 179.943 364.419 180.641 365.393 180.641Z" fill="#333333"/>
<rect x="63.5" y="13.5" width="269" height="18" rx="9" fill="#F5F5F5" stroke="#EEEEEE"/>
<rect x="63.5" y="53.5059" width="269" height="18" rx="9" fill="#F5F5F5" stroke="#EEEEEE"/>
<rect x="63.5" y="93.5122" width="269" height="18" rx="9" fill="#F5F5F5" stroke="#EEEEEE"/>
<rect x="63.5" y="133.519" width="269" height="18" rx="9" fill="#F5F5F5" stroke="#EEEEEE"/>
<rect x="63.5" y="174" width="269" height="18" rx="9" fill="#F5F5F5" stroke="#EEEEEE"/>
<g filter="url(#filter0_d_654_2859)">
<rect x="63" y="13" width="226.442" height="19" rx="9.5" fill="#76DC99"/>
</g>
<g filter="url(#filter1_d_654_2859)">
<rect x="63" y="53.0059" width="50.003" height="19" rx="9.5" fill="#B7EA83"/>
</g>
<g filter="url(#filter2_d_654_2859)">
<rect x="63" y="93.0122" width="32.7259" height="19" rx="9.5" fill="#F6D757"/>
</g>
<g filter="url(#filter3_d_654_2859)">
<rect x="63" y="133.019" width="19.3174" height="19" rx="9.5" fill="#FAB851"/>
</g>
<g filter="url(#filter4_d_654_2859)">
<rect x="63" y="173.5" width="10.4854" height="19" rx="5.24268" fill="#F17A55"/>
</g>
<defs>
<filter id="filter0_d_654_2859" x="59" y="10" width="234.442" height="27" filterUnits="userSpaceOnUse" color-interpolation-filters="sRGB">
<feFlood flood-opacity="0" result="BackgroundImageFix"/>
<feColorMatrix in="SourceAlpha" type="matrix" values="0 0 0 0 0 0 0 0 0 0 0 0 0 0 0 0 0 0 127 0" result="hardAlpha"/>
<feOffset dy="1"/>
<feGaussianBlur stdDeviation="2"/>
<feComposite in2="hardAlpha" operator="out"/>
<feColorMatrix type="matrix" values="0 0 0 0 0 0 0 0 0 0 0 0 0 0 0 0 0 0 0.2 0"/>
<feBlend mode="normal" in2="BackgroundImageFix" result="effect1_dropShadow_654_2859"/>
<feBlend mode="normal" in="SourceGraphic" in2="effect1_dropShadow_654_2859" result="shape"/>
</filter>
<filter id="filter1_d_654_2859" x="59" y="50.0059" width="58.0029" height="27" filterUnits="userSpaceOnUse" color-interpolation-filters="sRGB">
<feFlood flood-opacity="0" result="BackgroundImageFix"/>
<feColorMatrix in="SourceAlpha" type="matrix" values="0 0 0 0 0 0 0 0 0 0 0 0 0 0 0 0 0 0 127 0" result="hardAlpha"/>
<feOffset dy="1"/>
<feGaussianBlur stdDeviation="2"/>
<feComposite in2="hardAlpha" operator="out"/>
<feColorMatrix type="matrix" values="0 0 0 0 0 0 0 0 0 0 0 0 0 0 0 0 0 0 0.2 0"/>
<feBlend mode="normal" in2="BackgroundImageFix" result="effect1_dropShadow_654_2859"/>
<feBlend mode="normal" in="SourceGraphic" in2="effect1_dropShadow_654_2859" result="shape"/>
</filter>
<filter id="filter2_d_654_2859" x="59" y="90.0122" width="40.7261" height="27" filterUnits="userSpaceOnUse" color-interpolation-filters="sRGB">
<feFlood flood-opacity="0" result="BackgroundImageFix"/>
<feColorMatrix in="SourceAlpha" type="matrix" values="0 0 0 0 0 0 0 0 0 0 0 0 0 0 0 0 0 0 127 0" result="hardAlpha"/>
<feOffset dy="1"/>
<feGaussianBlur stdDeviation="2"/>
<feComposite in2="hardAlpha" operator="out"/>
<feColorMatrix type="matrix" values="0 0 0 0 0 0 0 0 0 0 0 0 0 0 0 0 0 0 0.2 0"/>
<feBlend mode="normal" in2="BackgroundImageFix" result="effect1_dropShadow_654_2859"/>
<feBlend mode="normal" in="SourceGraphic" in2="effect1_dropShadow_654_2859" result="shape"/>
</filter>
<filter id="filter3_d_654_2859" x="59" y="130.019" width="27.3174" height="27" filterUnits="userSpaceOnUse" color-interpolation-filters="sRGB">
<feFlood flood-opacity="0" result="BackgroundImageFix"/>
<feColorMatrix in="SourceAlpha" type="matrix" values="0 0 0 0 0 0 0 0 0 0 0 0 0 0 0 0 0 0 127 0" result="hardAlpha"/>
<feOffset dy="1"/>
<feGaussianBlur stdDeviation="2"/>
<feComposite in2="hardAlpha" operator="out"/>
<feColorMatrix type="matrix" values="0 0 0 0 0 0 0 0 0 0 0 0 0 0 0 0 0 0 0.2 0"/>
<feBlend mode="normal" in2="BackgroundImageFix" result="effect1_dropShadow_654_2859"/>
<feBlend mode="normal" in="SourceGraphic" in2="effect1_dropShadow_654_2859" result="shape"/>
</filter>
<filter id="filter4_d_654_2859" x="59" y="170.5" width="18.4854" height="27" filterUnits="userSpaceOnUse" color-interpolation-filters="sRGB">
<feFlood flood-opacity="0" result="BackgroundImageFix"/>
<feColorMatrix in="SourceAlpha" type="matrix" values="0 0 0 0 0 0 0 0 0 0 0 0 0 0 0 0 0 0 127 0" result="hardAlpha"/>
<feOffset dy="1"/>
<feGaussianBlur stdDeviation="2"/>
<feComposite in2="hardAlpha" operator="out"/>
<feColorMatrix type="matrix" values="0 0 0 0 0 0 0 0 0 0 0 0 0 0 0 0 0 0 0.2 0"/>
<feBlend mode="normal" in2="BackgroundImageFix" result="effect1_dropShadow_654_2859"/>
<feBlend mode="normal" in="SourceGraphic" in2="effect1_dropShadow_654_2859" result="shape"/>
</filter>
</defs>
</svg>
