<svg width="98" height="17" viewBox="0 0 98 17" fill="none" xmlns="http://www.w3.org/2000/svg">
<path d="M10.6777 1.26367L12.7402 5.41992L17.3027 6.07617C18.1152 6.20117 18.459 7.20117 17.8652 7.79492L14.5527 10.9824L15.334 15.5137C15.459 16.3262 14.6152 16.9512 13.8652 16.5762L9.80273 14.4512L5.70898 16.6074C4.95898 16.9824 4.11523 16.3574 4.24023 15.5449L5.02148 11.0137L1.70898 7.79492C1.11523 7.20117 1.45898 6.20117 2.27148 6.07617L6.83398 5.41992L8.89648 1.26367C9.27148 0.513672 10.334 0.544922 10.6777 1.26367ZM30.2777 1.26367L32.3402 5.41992L36.9027 6.07617C37.7152 6.20117 38.059 7.20117 37.4652 7.79492L34.1527 10.9824L34.934 15.5137C35.059 16.3262 34.2152 16.9512 33.4652 16.5762L29.4027 14.4512L25.309 16.6074C24.559 16.9824 23.7152 16.3574 23.8402 15.5449L24.6215 11.0137L21.309 7.79492C20.7152 7.20117 21.059 6.20117 21.8715 6.07617L26.434 5.41992L28.4965 1.26367C28.8715 0.513672 29.934 0.544922 30.2777 1.26367ZM49.8777 1.26367L51.9402 5.41992L56.5027 6.07617C57.3152 6.20117 57.659 7.20117 57.0652 7.79492L53.7527 10.9824L54.534 15.5137C54.659 16.3262 53.8152 16.9512 53.0652 16.5762L49.0027 14.4512L44.909 16.6074C44.159 16.9824 43.3152 16.3574 43.4402 15.5449L44.2215 11.0137L40.909 7.79492C40.3152 7.20117 40.659 6.20117 41.4715 6.07617L46.034 5.41992L48.0965 1.26367C48.4715 0.513672 49.534 0.544922 49.8777 1.26367ZM69.4777 1.26367L71.5402 5.41992L76.1027 6.07617C76.9152 6.20117 77.259 7.20117 76.6652 7.79492L73.3527 10.9824L74.134 15.5137C74.259 16.3262 73.4152 16.9512 72.6652 16.5762L68.6027 14.4512L64.509 16.6074C63.759 16.9824 62.9152 16.3574 63.0402 15.5449L63.8215 11.0137L60.509 7.79492C59.9152 7.20117 60.259 6.20117 61.0715 6.07617L65.634 5.41992L67.6965 1.26367C68.0715 0.513672 69.134 0.544922 69.4777 1.26367ZM89.0777 1.26367L91.1402 5.41992L95.7027 6.07617C96.5152 6.20117 96.859 7.20117 96.2652 7.79492L92.9527 10.9824L93.734 15.5137C93.859 16.3262 93.0152 16.9512 92.2652 16.5762L88.2027 14.4512L84.109 16.6074C83.359 16.9824 82.5152 16.3574 82.6402 15.5449L83.4215 11.0137L80.109 7.79492C79.5152 7.20117 79.859 6.20117 80.6715 6.07617L85.234 5.41992L87.2965 1.26367C87.6715 0.513672 88.734 0.544922 89.0777 1.26367Z" fill="#FFB800"/>
</svg>
