<svg width="37" height="14" viewBox="0 0 37 14" fill="none" xmlns="http://www.w3.org/2000/svg">
<path d="M21.4189 8.27637H24.4678V3.18359C24.1715 3.70312 23.8639 4.23177 23.5449 4.76953C23.2259 5.30273 22.8317 5.95443 22.3623 6.72461C21.8975 7.49023 21.583 8.00749 21.4189 8.27637ZM24.4746 11.8789V9.24707H20.0518V8.37207L24.1328 1.92578H25.7324V8.27637H27.2158V9.24707H25.7256V11.8789H24.4746ZM31.8506 1.74805C32.2197 1.74805 32.5661 1.7959 32.8896 1.8916C33.2132 1.98275 33.498 2.11719 33.7441 2.29492C33.9948 2.47266 34.209 2.68457 34.3867 2.93066C34.5645 3.1722 34.6989 3.44564 34.79 3.75098C34.8812 4.05632 34.9268 4.38216 34.9268 4.72852C34.9268 5.06576 34.8835 5.3916 34.7969 5.70605C34.7103 6.01595 34.5758 6.32585 34.3936 6.63574C34.2158 6.94108 34.0153 7.23503 33.792 7.51758C33.5687 7.79557 33.293 8.10775 32.9648 8.4541L30.75 10.7988H34.8857V11.8789H29.1846V10.8535L32.2129 7.64062C32.7324 7.08919 33.1016 6.59701 33.3203 6.16406C33.5436 5.73112 33.6553 5.28678 33.6553 4.83105C33.6553 4.22493 33.4912 3.74414 33.1631 3.38867C32.8395 3.0332 32.377 2.85547 31.7754 2.85547C31.5794 2.85547 31.3766 2.87598 31.167 2.91699C30.9619 2.95345 30.7796 2.99902 30.6201 3.05371C30.4606 3.10384 30.2965 3.16764 30.1279 3.24512C29.9593 3.31803 29.8271 3.38184 29.7314 3.43652C29.6403 3.48665 29.5446 3.54134 29.4443 3.60059C29.3486 3.65983 29.2985 3.68945 29.2939 3.68945L28.8701 2.6709C28.8747 2.6709 28.918 2.64583 29 2.5957C29.082 2.54102 29.1641 2.49089 29.2461 2.44531C29.3327 2.39974 29.4466 2.34277 29.5879 2.27441C29.7292 2.2015 29.8796 2.1377 30.0391 2.08301C30.1986 2.02376 30.3717 1.96908 30.5586 1.91895C30.75 1.86426 30.9551 1.82324 31.1738 1.7959C31.3971 1.764 31.6227 1.74805 31.8506 1.74805Z" fill="#333333"/>
<path d="M3.50195 12.8789C3.50195 13.3711 3.0918 13.7539 2.62695 13.6992H0.876953C0.384766 13.6992 0.00195312 13.3164 0.00195312 12.8516V6.75391C0.00195312 6.28906 0.384766 5.87891 0.876953 5.87891H2.62695C3.0918 5.87891 3.50195 6.26172 3.50195 6.75391V12.8789ZM14.002 6.78125C14.002 7.46484 13.4551 8.03906 12.7715 8.06641C12.9902 8.3125 13.127 8.61328 13.127 8.96875C13.127 9.59766 12.6621 10.1172 12.0332 10.2539C12.1699 10.4453 12.252 10.6641 12.252 10.9102C12.252 11.5117 11.8691 12.0039 11.3223 12.168C11.3496 12.25 11.377 12.3594 11.377 12.4688C11.377 13.1797 10.7754 13.7539 10.0645 13.7539H8.45117C7.49414 13.7539 6.5918 13.4531 5.82617 12.8789L4.89648 12.1953C4.56836 11.9492 4.37695 11.5664 4.37695 11.1289V6.75391C4.37695 6.78125 4.37695 6.75391 4.37695 6.75391C4.37695 6.37109 4.54102 6.01562 4.86914 5.74219L5.30664 5.38672C7.54883 3.60938 6.53711 1.50391 8.25977 1.50391C9.10742 1.50391 9.62695 2.1875 9.62695 2.84375C9.62695 3.25391 9.29883 4.42969 8.66992 5.46875H12.6895C13.4004 5.46875 14.002 6.04297 14.002 6.78125Z" fill="#007AB5"/>
</svg>
