<svg width="254" height="30" viewBox="0 0 254 30" fill="none" xmlns="http://www.w3.org/2000/svg">
<g clip-path="url(#clip0_2589_5431)">
<path d="M207.45 29.24C215.524 29.24 222.07 22.6944 222.07 14.62C222.07 6.5456 215.524 0 207.45 0C199.376 0 192.83 6.5456 192.83 14.62C192.83 22.6944 199.376 29.24 207.45 29.24Z" fill="url(#paint0_linear_2589_5431)"/>
<path d="M215.53 9.61011C215.02 9.84011 214.46 9.98011 213.92 10.0701C214.18 10.0301 214.56 9.56011 214.71 9.37011C214.94 9.08011 215.14 8.75011 215.25 8.39011C215.26 8.36011 215.27 8.33011 215.25 8.31011C215.22 8.30011 215.19 8.30011 215.16 8.32011C214.55 8.65011 213.92 8.88011 213.25 9.05011C213.19 9.06011 213.15 9.05011 213.12 9.02011C213.06 8.96011 213.01 8.90011 212.95 8.85011C212.67 8.61011 212.37 8.42011 212.02 8.28011C211.57 8.10011 211.08 8.02011 210.6 8.05011C210.13 8.08011 209.67 8.21011 209.25 8.43011C208.83 8.65011 208.46 8.95011 208.16 9.32011C207.85 9.70011 207.63 10.1501 207.51 10.6201C207.4 11.0801 207.41 11.5301 207.48 11.9901C207.49 12.0701 207.48 12.0801 207.41 12.0701C204.78 11.6801 202.61 10.7401 200.84 8.73011C200.76 8.64011 200.72 8.64011 200.66 8.74011C199.89 9.90011 200.26 11.7601 201.23 12.6801C201.36 12.8001 201.49 12.9201 201.63 13.0401C201.58 13.0501 200.94 12.9801 200.36 12.6801C200.28 12.6301 200.24 12.6601 200.24 12.7501C200.23 12.8801 200.24 12.9901 200.26 13.1301C200.41 14.3001 201.22 15.3901 202.34 15.8201C202.47 15.8801 202.62 15.9201 202.76 15.9501C202.51 16.0101 202.24 16.0501 201.52 15.9901C201.43 15.9701 201.39 16.0201 201.43 16.1001C201.98 17.5901 203.16 18.0301 204.04 18.2901C204.16 18.3101 204.28 18.3101 204.4 18.3401C204.39 18.3501 204.39 18.3501 204.38 18.3601C204.09 18.8101 203.07 19.1401 202.6 19.3101C201.74 19.6101 200.8 19.7501 199.89 19.6601C199.74 19.6401 199.71 19.6401 199.67 19.6601C199.63 19.6801 199.66 19.7201 199.71 19.7601C199.89 19.8801 200.08 19.9901 200.27 20.0901C200.85 20.4001 201.45 20.6401 202.08 20.8101C205.34 21.7101 209 21.0501 211.45 18.6201C213.37 16.7101 214.04 14.0801 214.04 11.4501C214.04 11.3501 214.16 11.2901 214.23 11.2401C214.73 10.8601 215.13 10.4201 215.5 9.91011C215.58 9.80011 215.58 9.70011 215.58 9.66011C215.58 9.65011 215.58 9.65011 215.58 9.65011C215.6 9.57011 215.6 9.58011 215.53 9.61011Z" fill="white"/>
<path d="M162.54 29.24C170.614 29.24 177.16 22.6944 177.16 14.62C177.16 6.5456 170.614 0 162.54 0C154.466 0 147.92 6.5456 147.92 14.62C147.92 22.6944 154.466 29.24 162.54 29.24Z" fill="url(#paint1_linear_2589_5431)"/>
<path d="M167.08 9.10986C166.53 9.10986 166.08 9.55986 166.08 10.1099C166.08 10.6699 166.53 11.1199 167.08 11.1199C167.64 11.1199 168.09 10.6699 168.09 10.1099C168.08 9.55986 167.63 9.10986 167.08 9.10986Z" fill="white"/>
<path d="M162.61 10.3999C160.28 10.3999 158.39 12.2899 158.39 14.6199C158.39 16.9499 160.28 18.8399 162.61 18.8399C164.94 18.8399 166.83 16.9499 166.83 14.6199C166.83 12.2899 164.94 10.3999 162.61 10.3999ZM162.61 17.3299C161.12 17.3299 159.91 16.1199 159.91 14.6299C159.91 13.1399 161.12 11.9299 162.61 11.9299C164.1 11.9299 165.31 13.1399 165.31 14.6299C165.31 16.1199 164.1 17.3299 162.61 17.3299Z" fill="white"/>
<path d="M165.96 23.1898H159.12C156.28 23.1898 153.97 20.8798 153.97 18.0398V11.1998C153.97 8.3598 156.28 6.0498 159.12 6.0498H165.96C168.8 6.0498 171.11 8.3598 171.11 11.1998V18.0398C171.11 20.8798 168.8 23.1898 165.96 23.1898ZM159.12 7.6598C157.17 7.6598 155.58 9.2498 155.58 11.1998V18.0398C155.58 19.9898 157.17 21.5798 159.12 21.5798H165.96C167.91 21.5798 169.5 19.9898 169.5 18.0398V11.1998C169.5 9.2498 167.91 7.6598 165.96 7.6598H159.12Z" fill="white"/>
<path d="M132.24 14.62C132.24 6.55 125.7 0 117.62 0C109.54 0 103 6.55 103 14.62C103 21.92 108.35 27.97 115.34 29.06V18.85H111.62V14.62H115.33V11.4C115.33 7.74 117.51 5.71 120.85 5.71C122.45 5.71 124.12 6 124.12 6V9.6H122.28C120.46 9.6 119.9 10.73 119.9 11.88V14.62H123.96L123.31 18.85H119.9V29.07C126.9 27.97 132.24 21.92 132.24 14.62Z" fill="url(#paint2_linear_2589_5431)"/>
<path d="M123.31 18.85L123.96 14.62H119.9V11.88C119.9 10.72 120.47 9.59996 122.28 9.59996H124.12V5.99996C124.12 5.99996 122.45 5.70996 120.85 5.70996C117.51 5.70996 115.33 7.72996 115.33 11.4V14.62H111.62V18.85H115.33V29.07C116.07 29.19 116.84 29.25 117.61 29.25C118.38 29.25 119.15 29.19 119.89 29.07V18.85H123.31Z" fill="white"/>
<path d="M4.10156 18.0498C4.375 18.0498 4.62109 18.0247 4.83984 17.9746C5.06315 17.9245 5.25684 17.8538 5.4209 17.7627C5.58496 17.667 5.72168 17.5508 5.83105 17.4141C5.94499 17.2728 6.0293 17.1133 6.08398 16.9355C6.13867 16.7533 6.16602 16.5527 6.16602 16.334C6.16602 16.097 6.14095 15.8988 6.09082 15.7393C6.04069 15.5752 5.94499 15.4202 5.80371 15.2744C5.66243 15.1286 5.46875 14.9987 5.22266 14.8848C4.98112 14.7663 4.65983 14.6455 4.25879 14.5225C4.21777 14.5088 4.11751 14.4814 3.95801 14.4404C3.80306 14.3949 3.70052 14.363 3.65039 14.3447C2.69792 14.0713 2.00293 13.7249 1.56543 13.3057C1.13249 12.8864 0.916016 12.2826 0.916016 11.4941C0.916016 10.9336 1.06185 10.4528 1.35352 10.0518C1.64518 9.65072 2.03483 9.35449 2.52246 9.16309C3.01465 8.96712 3.57975 8.86914 4.21777 8.86914C5.56217 8.86914 6.58529 9.21549 7.28711 9.9082L6.6377 10.79C6.40527 10.5622 6.09082 10.3685 5.69434 10.209C5.29785 10.0495 4.85807 9.96973 4.375 9.96973C3.74609 9.96973 3.24251 10.0951 2.86426 10.3457C2.49056 10.5964 2.30371 10.9655 2.30371 11.4531C2.30371 11.7812 2.34701 12.041 2.43359 12.2324C2.52474 12.4238 2.68652 12.5902 2.91895 12.7314C3.15592 12.8727 3.51139 13.0186 3.98535 13.1689C3.99447 13.1735 4.07878 13.1986 4.23828 13.2441C4.40234 13.2897 4.51172 13.3193 4.56641 13.333C5.14974 13.5062 5.62826 13.6862 6.00195 13.873C6.38021 14.0599 6.68327 14.2764 6.91113 14.5225C7.139 14.764 7.2985 15.0306 7.38965 15.3223C7.48079 15.6139 7.52637 15.9648 7.52637 16.375C7.52637 16.8353 7.4375 17.2454 7.25977 17.6055C7.08659 17.9609 6.84505 18.2503 6.53516 18.4736C6.22526 18.6969 5.86979 18.8656 5.46875 18.9795C5.06771 19.0934 4.63021 19.1504 4.15625 19.1504C3.41341 19.1504 2.74805 19.0296 2.16016 18.7881C1.57682 18.542 1.15072 18.2891 0.881836 18.0293L1.46289 17.0859C1.75456 17.3184 2.13737 17.5371 2.61133 17.7422C3.08529 17.9473 3.58203 18.0498 4.10156 18.0498ZM12.6123 19.1504C11.4775 19.1504 10.5889 18.8132 9.94629 18.1387C9.30827 17.4642 8.98926 16.5846 8.98926 15.5C8.98926 14.3971 9.31055 13.5062 9.95312 12.8271C10.6003 12.1481 11.4912 11.8086 12.626 11.8086C13.7562 11.8086 14.6357 12.1481 15.2646 12.8271C15.8936 13.5016 16.208 14.3926 16.208 15.5C16.208 16.5846 15.889 17.4642 15.251 18.1387C14.613 18.8132 13.7334 19.1504 12.6123 19.1504ZM12.6123 18.125C13.3506 18.125 13.9134 17.8857 14.3008 17.4072C14.6927 16.9287 14.8887 16.293 14.8887 15.5C14.8887 14.6934 14.6904 14.0485 14.2939 13.5654C13.902 13.0778 13.3392 12.834 12.6055 12.834C11.8672 12.834 11.2998 13.0778 10.9033 13.5654C10.5068 14.0485 10.3086 14.6934 10.3086 15.5C10.3086 16.293 10.5046 16.9287 10.8965 17.4072C11.293 17.8857 11.8649 18.125 12.6123 18.125ZM21.1641 19.1504C20.0794 19.1504 19.2113 18.8132 18.5596 18.1387C17.9124 17.4596 17.5889 16.5915 17.5889 15.5342C17.5889 14.4268 17.9193 13.529 18.5801 12.8408C19.2409 12.1527 20.1113 11.8086 21.1914 11.8086C22.1712 11.8086 22.9437 12.0866 23.5088 12.6426L23.0645 13.4766C22.5768 13.0527 21.9821 12.8408 21.2803 12.8408C20.5648 12.8408 19.986 13.0755 19.5439 13.5449C19.1064 14.0098 18.8877 14.6706 18.8877 15.5273C18.8877 16.3203 19.0996 16.9515 19.5234 17.4209C19.9518 17.8903 20.5306 18.125 21.2598 18.125C21.9661 18.125 22.6042 17.9062 23.1738 17.4688L23.5703 18.3779C22.9049 18.8929 22.1029 19.1504 21.1641 19.1504ZM25.3545 10.2158V9.04688H26.5986V10.2158H25.3545ZM25.3477 19V11.9863H26.5986V19H25.3477ZM31.9307 18.125C32.6279 18.125 33.1589 17.8835 33.5234 17.4004C33.8926 16.9128 34.0771 16.2588 34.0771 15.4385C34.0771 14.6637 33.8903 14.0371 33.5166 13.5586C33.1429 13.0755 32.6097 12.834 31.917 12.834C31.1878 12.834 30.6318 13.0755 30.249 13.5586C29.8708 14.0417 29.6816 14.6751 29.6816 15.459C29.6816 16.2474 29.873 16.89 30.2559 17.3867C30.6387 17.8789 31.1969 18.125 31.9307 18.125ZM31.7529 19.1504C31.2288 19.1504 30.7526 19.0524 30.3242 18.8564C29.9004 18.6605 29.5495 18.3962 29.2715 18.0635C28.998 17.7262 28.7861 17.3389 28.6357 16.9014C28.4899 16.4593 28.417 15.9899 28.417 15.4932C28.417 14.8096 28.5492 14.1921 28.8135 13.6406C29.0824 13.0846 29.472 12.6403 29.9824 12.3076C30.4928 11.9749 31.083 11.8086 31.7529 11.8086C32.2497 11.8086 32.7008 11.9294 33.1064 12.1709C33.5166 12.4124 33.8265 12.7223 34.0361 13.1006V11.9863H35.2803V19H34.0225V17.8037C33.8219 18.223 33.5234 18.5534 33.127 18.7949C32.7305 19.0319 32.2725 19.1504 31.7529 19.1504ZM37.6455 19V8.8418H38.9033V19H37.6455ZM45.4863 19V9.04688H47.0723C47.1862 9.3112 47.6989 10.4824 48.6104 12.5605C49.5218 14.6341 50.2122 16.2178 50.6816 17.3115C51.151 16.2132 51.8438 14.6273 52.7598 12.5537C53.6803 10.4801 54.1999 9.3112 54.3184 9.04688H55.8701V19H54.626V11.1729C54.1794 12.2028 53.5277 13.6725 52.6709 15.582C51.8187 17.487 51.3105 18.6263 51.1465 19H50.21L47.2568 12.3486L46.7441 11.1182V19H45.4863ZM59.2812 14.8096H63.3076C63.262 14.167 63.0752 13.6725 62.7471 13.3262C62.4189 12.9798 61.9814 12.8066 61.4346 12.8066C60.8604 12.8066 60.3796 12.9844 59.9922 13.3398C59.6094 13.6953 59.3724 14.1852 59.2812 14.8096ZM61.5918 19.1504C60.4753 19.1504 59.5889 18.82 58.9326 18.1592C58.2764 17.4938 57.9482 16.612 57.9482 15.5137C57.9482 14.4336 58.2627 13.5472 58.8916 12.8545C59.5251 12.1572 60.3613 11.8086 61.4004 11.8086C62.0566 11.8086 62.6172 11.9613 63.082 12.2666C63.5514 12.5719 63.8978 12.9867 64.1211 13.5107C64.349 14.0348 64.4629 14.6432 64.4629 15.3359C64.4629 15.4225 64.4561 15.5342 64.4424 15.6709H59.2471C59.2607 16.4548 59.4863 17.0609 59.9238 17.4893C60.3613 17.9131 60.9401 18.125 61.6602 18.125C62.4987 18.125 63.2415 17.8652 63.8887 17.3457L64.2646 18.2754C63.5127 18.8587 62.6217 19.1504 61.5918 19.1504ZM69.3096 18.125C69.9977 18.125 70.5286 17.8812 70.9023 17.3936C71.276 16.9059 71.4629 16.252 71.4629 15.4316C71.4629 14.6615 71.2738 14.0371 70.8955 13.5586C70.5173 13.0755 69.9954 12.834 69.3301 12.834C68.6647 12.834 68.1475 13.0778 67.7783 13.5654C67.4092 14.0485 67.2246 14.6888 67.2246 15.4863C67.2246 16.2793 67.4046 16.9173 67.7646 17.4004C68.1247 17.8835 68.6396 18.125 69.3096 18.125ZM69.125 19.1504C68.1862 19.1504 67.416 18.82 66.8145 18.1592C66.2174 17.4938 65.9189 16.612 65.9189 15.5137C65.9189 14.7936 66.0465 14.1579 66.3018 13.6064C66.557 13.0505 66.9329 12.613 67.4297 12.2939C67.931 11.9704 68.5189 11.8086 69.1934 11.8086C69.7311 11.8086 70.2005 11.9294 70.6016 12.1709C71.0026 12.4124 71.2806 12.7018 71.4355 13.0391V8.8418H72.7002V17.1816C72.7048 17.6009 72.7207 18.207 72.748 19H71.4697L71.4424 17.8105C71.3011 18.1751 71.0277 18.4896 70.6221 18.7539C70.221 19.0182 69.722 19.1504 69.125 19.1504ZM75.0518 10.2158V9.04688H76.2959V10.2158H75.0518ZM75.0449 19V11.9863H76.2959V19H75.0449ZM81.6279 18.125C82.3252 18.125 82.8561 17.8835 83.2207 17.4004C83.5898 16.9128 83.7744 16.2588 83.7744 15.4385C83.7744 14.6637 83.5876 14.0371 83.2139 13.5586C82.8402 13.0755 82.307 12.834 81.6143 12.834C80.8851 12.834 80.3291 13.0755 79.9463 13.5586C79.568 14.0417 79.3789 14.6751 79.3789 15.459C79.3789 16.2474 79.5703 16.89 79.9531 17.3867C80.3359 17.8789 80.8942 18.125 81.6279 18.125ZM81.4502 19.1504C80.9261 19.1504 80.4499 19.0524 80.0215 18.8564C79.5977 18.6605 79.2467 18.3962 78.9688 18.0635C78.6953 17.7262 78.4834 17.3389 78.333 16.9014C78.1872 16.4593 78.1143 15.9899 78.1143 15.4932C78.1143 14.8096 78.2464 14.1921 78.5107 13.6406C78.7796 13.0846 79.1693 12.6403 79.6797 12.3076C80.1901 11.9749 80.7803 11.8086 81.4502 11.8086C81.9469 11.8086 82.3981 11.9294 82.8037 12.1709C83.2139 12.4124 83.5238 12.7223 83.7334 13.1006V11.9863H84.9775V19H83.7197V17.8037C83.5192 18.223 83.2207 18.5534 82.8242 18.7949C82.4277 19.0319 81.9697 19.1504 81.4502 19.1504Z" fill="#333333"/>
</g>
<defs>
<linearGradient id="paint0_linear_2589_5431" x1="217.793" y1="4.2825" x2="197.116" y2="24.9603" gradientUnits="userSpaceOnUse">
<stop stop-color="#33CCFF"/>
<stop offset="1" stop-color="#337FFF"/>
</linearGradient>
<linearGradient id="paint1_linear_2589_5431" x1="172.877" y1="4.2825" x2="152.199" y2="24.9603" gradientUnits="userSpaceOnUse">
<stop offset="0.0011048" stop-color="#FBE18A"/>
<stop offset="0.2094" stop-color="#FCBB45"/>
<stop offset="0.3765" stop-color="#F75274"/>
<stop offset="0.5238" stop-color="#D53692"/>
<stop offset="0.7394" stop-color="#8F39CE"/>
<stop offset="1" stop-color="#5B4FE9"/>
</linearGradient>
<linearGradient id="paint2_linear_2589_5431" x1="107.283" y1="4.2825" x2="127.96" y2="24.9602" gradientUnits="userSpaceOnUse">
<stop stop-color="#4676ED"/>
<stop offset="0.1854" stop-color="#436DE4"/>
<stop offset="0.487" stop-color="#3C55CD"/>
<stop offset="0.8651" stop-color="#302EA8"/>
<stop offset="1" stop-color="#2B1E99"/>
</linearGradient>
<clipPath id="clip0_2589_5431">
<rect width="253.83" height="29.24" fill="white"/>
</clipPath>
</defs>
</svg>
